<?xml version="1.0" encoding="utf-8"?>
<!-- Generator: Adobe Illustrator 18.0.0, SVG Export Plug-In . SVG Version: 6.00 Build 0)  -->
<!DOCTYPE svg PUBLIC "-//W3C//DTD SVG 1.1//EN" "http://www.w3.org/Graphics/SVG/1.1/DTD/svg11.dtd">
<svg version="1.1" id="Layer_1" xmlns="http://www.w3.org/2000/svg" xmlns:xlink="http://www.w3.org/1999/xlink" x="0px" y="0px"
	 viewBox="0 0 86.3 78.3" enable-background="new 0 0 86.3 78.3" xml:space="preserve">
<g>
	<circle fill="#4E4F50" cx="42.7" cy="37.3" r="36.3"/>
	<path fill="#FFFFFF" d="M7.8,37.3c0-19.6,15.3-34.7,34.9-34.7c19.6,0,35.4,17.4,34.7,34.8c-0.8,18.8-13.6,34.1-33.2,34.1
		C24.5,71.5,7.8,56.9,7.8,37.3z"/>
	<g>
		<g>
			<path fill="#4E4F50" d="M31.1,20.4c-0.1,0-0.1,0.1-0.3,0.1c-0.1,0-0.2,0.1-0.2,0.1c-0.1,0-0.2,0.2-0.2,0.2c0,0,0,0-0.1,0.1
				c-0.1,0-0.1,0-0.3,0c-0.1,0-0.1-0.1-0.1-0.1c0,0-0.1,0-0.2,0c-0.1,0-0.4,0.2-0.4,0.1c0,0-0.1,0-0.2-0.1c-0.1,0-0.2,0-0.3,0
				c-0.1,0,0,0,0,0.1c0,0.1,0,0.1-0.2,0.2c-0.1,0-0.2,0.1-0.2,0.1c-0.1,0,0,0.1,0,0.1c0,0,0.1,0,0.3,0.1c0.2,0,0.1,0.1,0.1,0.1
				s-0.1,0.1-0.1,0.1c0,0-0.2,0-0.2,0s-0.2,0.1-0.2,0c0,0-0.1,0-0.1,0c0,0-0.1,0.1-0.1,0.1c0,0-0.1,0.1-0.1,0.1c0,0-0.1,0-0.2-0.1
				c-0.1,0-0.1,0-0.2,0c0,0-0.2,0.1-0.2,0.1c0,0-0.1,0.1-0.1,0.1s-0.2,0.1-0.3,0.1c-0.1,0-0.2,0.1-0.2,0.2c-0.1,0.1-0.2,0.1-0.3,0.1
				c-0.1,0-0.2,0-0.2,0c-0.1-0.1,0-0.1,0.1-0.2c0.1-0.1,0.2,0,0.2-0.1c0.1,0,0.1-0.1,0.1-0.2c0-0.1,0.1-0.2,0.1-0.2s0.1-0.1,0.2-0.2
				c0.1,0,0.1-0.1,0.2-0.2c0-0.1,0-0.1,0-0.3c0-0.1,0-0.2,0-0.2c0,0,0.1,0,0.2-0.1c0.1,0,0.1-0.1,0.2-0.2c0.1-0.1,0-0.1-0.1-0.2
				c0-0.1-0.1-0.1-0.1-0.2c-0.1,0,0-0.1,0-0.2c0,0,0.1,0.1,0.2,0.1c0.1,0,0.2,0.2,0.2,0.2c0,0.1,0.2,0.1,0.3,0.2
				c0.1,0.1,0.2,0,0.3,0c0.1-0.1,0.1-0.2,0.1-0.2c0,0-0.1-0.1,0-0.1c0-0.1-0.2-0.1-0.2-0.2c0-0.1-0.2,0-0.2-0.1
				c0-0.1-0.1-0.1-0.1-0.2c0-0.1-0.2-0.1-0.3-0.1c0,0-0.2,0-0.2,0c0,0-0.1-0.1-0.1-0.1c0,0-0.2,0-0.3-0.1c0,0-0.3,0-0.4,0
				c-0.1,0-0.6,0.1-0.6,0.1s-0.2,0-0.2-0.1c-0.1,0,0-0.1,0-0.1c0-0.1-0.1-0.1-0.2-0.2c-0.1,0-0.1-0.1-0.1-0.1c0-0.1,0.1-0.1,0.2-0.1
				c0,0-0.1-0.2-0.2-0.2c-0.1,0,0-0.1,0-0.2c0.1-0.1-0.1-0.2-0.1-0.2c0-0.1-0.2,0-0.3,0c-0.1,0-0.1,0.1-0.1,0.2
				c-0.1,0-0.1,0.1-0.1,0c0-0.1,0.1-0.1,0.1-0.2c0-0.1-0.3-0.3-0.2-0.3c0-0.1-0.1-0.1-0.1-0.2c0,0-0.1-0.1-0.1-0.1s-0.2,0-0.3,0
				c-0.1,0-0.3,0.1-0.3,0c0,0-0.1-0.1-0.1-0.1c-0.1-0.1-0.3,0-0.3,0c0,0.1-0.1,0.2-0.2,0.2c-0.1,0.1-0.3,0.3-0.3,0.2
				c0,0-0.1-0.1-0.1-0.1c-0.1,0-0.2,0.3-0.2,0.3c0,0.1-0.4,0.3-0.5,0.3c-0.1,0-0.3,0.1-0.5,0.2c-0.1,0.1-0.4,0.3-0.5,0.3
				c-0.1,0-0.4,0.2-0.4,0.3c0,0,0,0.1,0,0.1c0,0,0,0,0.1,0c0.1,0,0.2,0,0.3-0.1c0.1-0.1,0-0.1,0.1-0.1c0.1-0.1,0.2,0,0.2,0
				c0.1,0,0,0.1-0.1,0.1c0,0,0.1,0.1,0.1,0.1c0.1,0,0.2,0.1,0.2,0c0.1,0,0,0,0.2-0.1c0.2-0.1,0.1,0,0.3,0c0.2,0,0.1-0.1,0.3-0.2
				c0.1-0.1,0.2-0.1,0.3-0.2c0.2-0.1,0.2-0.2,0.3-0.2l0.2,0.2c-0.1,0.1-0.2,0.1-0.4,0.2c-0.2,0.1,0,0.1,0.2,0c0.1,0,0.2,0,0.3,0.1
				c0.1,0,0.2,0.2,0.3,0.2c0.1-0.1,0.1,0.1,0.2,0.1c0.1,0,0.2,0,0.2,0c0.1,0,0.2-0.1,0.3-0.2c0.2-0.1,0.2,0,0.3,0c0.1,0,0.2,0,0.3,0
				c0.1,0,0,0,0.1,0.1c0.1,0.1,0.1,0.1,0.2,0.1c0.1,0,0.2,0,0.3,0.1c0.1,0.1,0.2,0.2,0.1,0.1c-0.1,0,0,0-0.1,0s-0.1,0-0.2,0
				c-0.1,0-0.1,0-0.3,0c-0.2,0-0.1,0-0.2,0c-0.1,0-0.1,0.1-0.2,0.1c-0.1,0.1-0.1,0-0.2,0c-0.1,0-0.2,0.1-0.2,0.1
				c0,0-0.1,0.1-0.2,0.2c-0.1,0-0.1,0-0.2,0c-0.1,0-0.2,0-0.3,0c0,0-0.1,0.1-0.1,0.2c0,0.1,0,0-0.1,0.2c-0.1,0.2-0.1,0.1-0.2,0.2
				c-0.1,0.1-0.1,0.2-0.1,0.2c0,0,0,0,0.2-0.2c0.1-0.2,0.3-0.4,0.3-0.5c0-0.1,0,0.1,0,0.2c0,0.1,0,0.1-0.1,0.2
				c0,0.1-0.1,0.2-0.1,0.3c-0.1,0.1-0.1,0.2-0.2,0.2c-0.1,0.1-0.1,0.1-0.2,0.2c-0.1,0.1,0,0.4,0,0.4c0,0.1,0,0.1-0.2,0.2
				c-0.1,0.1,0,0.3,0,0.4c0,0.1,0.1,0.4,0.1,0.5c0,0.1,0.4,0.2,0.4,0.2c0,0,0.2-0.1,0.3-0.2c0.1-0.1,0-0.1,0.1-0.2
				c0-0.1,0.1-0.2,0.2-0.3c0.1-0.1,0.1-0.2,0.1-0.3c0-0.2-0.1-0.2-0.2-0.2c-0.1-0.1-0.1-0.1-0.1-0.1c0,0,0-0.2,0.1-0.3
				c0.1-0.1,0.1-0.1,0.1-0.2c0-0.1,0-0.2,0-0.2c0-0.1,0.1-0.1,0.2-0.2c0.1-0.1,0.1-0.1,0.2-0.1c0.1-0.1,0.1,0,0.2,0.1
				c0.1,0.1,0.1,0,0.2-0.1c0.1-0.1,0-0.1,0.1-0.2c0.1-0.1,0-0.1,0.2-0.2c0.1-0.1,0.1-0.1,0.1-0.1s0.1,0.1,0.2,0c0.1,0,0.3,0,0.3,0
				c0.1,0,0.3,0.1,0.4,0.2c0.1,0,0.1,0.2,0.1,0.3c0,0.1,0,0.4-0.1,0.6c0,0.1-0.1,0.1,0,0.1c0,0-0.1,0.1-0.2,0.1
				c-0.2,0-0.1,0.1-0.2,0.1c-0.1,0.1,0.1,0.2,0.2,0.2c0.1,0,0.1-0.1,0.2-0.2c0.1-0.1,0.1-0.1,0.2-0.2c0.1,0,0.1,0.1,0.1,0.1
				c0,0,0.1,0,0.2,0.1c0.1,0.1,0,0.2,0,0.2c0,0,0,0.2,0,0.2c0,0.1,0,0.1-0.1,0.2c-0.1,0-0.1,0.1-0.1,0.1c-0.1,0-0.2,0.4-0.4,0.5
				c-0.2,0.1,0,0.1-0.1,0.1c-0.1,0.1,0,0,0,0.1c0,0.1,0.1,0.1,0.2,0.1c0.1,0,0.2,0,0.2,0.1c0.1,0,0.3,0.1,0.4,0
				c0.1-0.1,0.5-0.1,0.6-0.1c0.1-0.1,0.1-0.1,0.2-0.2c0.1-0.1,0.2,0,0.2,0s0.2-0.1,0.3-0.1c0.1,0,0.2,0,0.3-0.1c0,0,0.1-0.2,0.1-0.2
				s0.2-0.1,0.3-0.1c0.1-0.1,0.2-0.1,0.2-0.2c0-0.1,0-0.2,0-0.3c0-0.1,0.3,0,0.4,0c0.1,0,0.2,0,0.3,0c0.1,0,0.1,0,0.4,0.1
				c0.2,0.1,0.1,0,0.3-0.1c0,0,0.1,0,0.2,0c0.1,0,0.1,0,0.1-0.1c0.1-0.1,0-0.1,0.1-0.2c0.1-0.1,0-0.1,0-0.2c0-0.1,0.1-0.1,0.2-0.1
				c0.1-0.1,0.5-0.5,0.6-0.5c0-0.1,0,0-0.1,0C31.3,20.2,31.2,20.4,31.1,20.4z"/>
			<path fill="#4E4F50" d="M18.4,15.2c-0.1,0-0.1-0.3-0.1-0.3c0,0,0-0.2-0.1-0.2c0,0-0.1-0.2,0-0.3c0-0.1,0-0.2-0.1-0.2
				c-0.1,0-0.1-0.1-0.1-0.1c0,0,0.1-0.2,0.1-0.3c0,0-0.1-0.1-0.2-0.1c-0.1-0.1-0.3-0.1-0.1-0.2c0.2-0.1,0.1-0.1,0.3-0.2
				c0.2-0.1,0.2-0.1,0.1-0.1c-0.1,0-0.2,0.1-0.2,0C18,13.2,18,13,18,13s-0.2,0.5-0.3,0.6c-0.1,0-0.3,0-0.3,0c0,0-0.1,0.1-0.2,0.2
				C17.1,13.9,17,14,17,14.1c0,0.1,0,0.2,0.1,0.2c0.1,0,0.2-0.1,0.3,0c0.1,0-0.1,0.1-0.1,0.2c0,0.1,0,0.1,0.1,0.2
				c0.1,0.1,0.3,0.3,0.2,0.4c0,0.1,0.2-0.1,0.2,0c0.1,0,0.2,0.1,0.2,0.2c0,0,0,0.1,0,0.2c-0.1,0.1,0,0.1,0.1,0.1
				c0,0,0.2-0.1,0.2-0.1s0,0.1,0,0.2c0,0.1-0.1,0.2-0.1,0.3c-0.1,0.1-0.1,0.1-0.1,0.3c0,0.1-0.1,0.1,0,0.2c0.1,0.1,0.2-0.1,0.3-0.2
				c0.1-0.1,0.1-0.3,0.2-0.3c0-0.1,0-0.2,0-0.3C18.5,15.4,18.5,15.3,18.4,15.2z"/>
			<path fill="#4E4F50" d="M74.9,24.2c0,0,0-0.1,0.1-0.1c-0.3-0.6-0.5-1.3-0.8-1.9c-0.1,0-0.2,0.1-0.3,0c-0.1-0.1-0.1-0.3-0.1-0.3
				c0,0-0.3-0.2-0.4-0.2c-0.1,0-0.5-0.1-0.5-0.1s0-0.2-0.1-0.2c-0.1,0-0.3-0.2-0.3-0.3c-0.1-0.1-0.2-0.2-0.3-0.2c0,0,0,0-0.1-0.1
				c-0.1-0.1-0.2-0.2-0.3-0.3c0,0-0.1-0.2-0.2-0.3c0-0.1-0.1-0.2-0.1-0.3c0-0.1,0-0.2-0.1-0.3c-0.1,0-0.3-0.1-0.3-0.1
				c-0.1,0-0.2,0.1-0.2,0c-0.1,0-0.1-0.1-0.2-0.1c-0.1,0-0.1-0.1-0.2,0c-0.1,0.1-0.1,0-0.2,0c-0.1,0-0.1,0.1-0.2,0.2
				c-0.1,0.1-0.1,0-0.1,0.1c0,0,0-0.1-0.2,0c0,0,0,0,0,0c-0.2,0.1-0.2,0.2-0.3,0.2c0,0.1,0-0.1-0.2,0.1c-0.2,0.2-0.4,0.3-0.5,0.4
				c-0.1,0-0.4-0.1-0.4-0.1c-0.1,0-0.2,0-0.2,0c0,0-0.1-0.1-0.2-0.2c-0.1,0-0.3,0-0.4,0c-0.1,0-0.1-0.1-0.2-0.1
				c-0.1,0-0.3,0.1-0.3,0.2c0,0.1-0.2,0.2-0.3,0.3c0,0.1-0.1,0.1,0,0.2c0,0.1,0,0.1,0.1,0.2c0,0.1,0.1,0.2,0.1,0.2
				c0,0.1,0.1,0.1,0,0.2c-0.1,0.1-0.1,0.1-0.2,0.2c-0.1,0.1-0.1-0.1-0.2,0c-0.2,0.2-0.3,0.3-0.3,0.3s-0.2,0-0.2,0.1
				c-0.1,0-0.2,0-0.2,0.1c0,0-0.2,0.2-0.2,0.2s-0.2,0.1-0.2,0.1c0,0-0.2,0.1-0.2,0.2c0,0-0.1,0.1-0.1,0.2c0,0-0.2,0.4-0.2,0.5
				c0,0.1-0.1,0.1-0.1,0.2c0,0.1-0.1,0.1,0,0.2c0,0.1,0,0.2,0.1,0.2c0.1,0.1,0.1,0.1,0.2,0.2c0,0.1,0,0.1,0,0.2c0,0-0.2,0.1-0.2,0.1
				c0,0-0.1,0-0.1,0.1c-0.1,0.1-0.1,0.1-0.1,0.2c-0.1,0.1-0.1,0.1-0.2,0.2c0,0.1-0.1,0-0.1,0.1c0,0.1-0.3,0.2-0.3,0.2
				s-0.1,0.1-0.2,0.1c0,0.1-0.2,0.3-0.2,0.3c-0.1,0-0.1,0.1-0.2,0.1c0,0-0.1,0-0.1,0.1c0,0-0.3-0.1-0.3,0c0,0-0.2,0.1-0.2,0.1
				s-0.1-0.1-0.1-0.1c-0.1,0-0.2,0-0.3,0.1c-0.1,0-0.1,0-0.2,0c-0.1,0-0.1,0-0.2,0c-0.1,0.1-0.4,0.1-0.4,0.1c0,0-0.1,0.1-0.2,0.1
				c-0.1,0.1-0.2,0.2-0.2,0.1c0,0-0.3-0.1-0.3-0.1c0,0-0.2-0.3-0.2-0.3c0,0,0-0.2-0.1-0.3c-0.1,0-0.3-0.1-0.3-0.1c0,0-0.1-0.1-0.2,0
				c0,0-0.1,0-0.1,0c0,0-0.1,0-0.1,0c-0.1,0.1,0,0.1-0.1,0.1c-0.1,0-0.2,0-0.2,0S59.5,25,59.4,25c-0.1,0-0.1,0-0.2,0
				c-0.1,0-0.2,0.1-0.2,0.1s-0.1,0-0.1-0.1c0-0.1,0-0.2,0.1-0.3c0.1-0.1,0.1-0.2,0.1-0.3c0-0.1,0-0.2,0-0.2c0,0-0.1-0.2-0.1-0.2
				c-0.1,0-0.2,0-0.2-0.1c0-0.1,0-0.2,0-0.2c0,0,0,0,0-0.1c0-0.1,0-0.1,0.1-0.2c0.1-0.1,0.1-0.1,0.2-0.3c0-0.1,0.3-0.8,0.3-0.9
				c0-0.1,0-0.2,0-0.3c0-0.1,0-0.2,0-0.3c0,0-0.1-0.1-0.1-0.2c0-0.1,0-0.1,0-0.3c0,0,0,0,0,0c0-0.1,0-0.2,0-0.2c0-0.1,0,0-0.1-0.1
				c-0.1-0.1-0.1-0.2-0.1-0.2c0,0-0.1-0.1-0.1-0.1c0-0.1,0.1-0.2,0.2-0.2c0.1,0,0.2-0.1,0.3-0.1c0,0,0.2,0,0.2,0
				c0.1-0.1,0.1-0.2,0.1-0.2c0,0,0.1-0.1,0.2-0.1c0.1,0,0.2,0,0.2,0.1c0.1,0.1,0.1,0,0.1,0.1c0.1,0.1,0,0,0.2,0c0.1,0,0.2,0,0.2,0
				c0,0,0.4-0.1,0.4-0.1c0,0,0.2,0,0.2,0.1c0,0,0.1,0,0.2,0c0.1,0,0.3,0.1,0.3,0.1s0.1,0,0.2,0c0.1,0,0.3-0.1,0.3-0.1s0,0,0.1,0
				c0.2,0,0.2,0.1,0.3,0.1c0.1,0,0.3-0.1,0.3,0c0.1,0,0.1,0,0.2,0c0.1,0,0.1,0,0.2,0c0.1,0,0.1,0,0.2,0c0.1,0,0.1,0,0.2,0
				c0,0,0,0,0,0C64,20,64,20,64,19.9c0-0.1,0.1-0.6,0.2-0.7c0-0.1,0-0.4,0-0.4c0-0.1,0-0.1,0.1-0.2c0,0,0-0.1,0-0.2c0,0,0-0.2,0-0.2
				c0-0.1,0-0.1-0.1-0.1c-0.1,0-0.1-0.1-0.2-0.2c-0.1,0-0.1-0.1-0.2-0.2c-0.1-0.1-0.2-0.2-0.2-0.2c0,0,0-0.1,0-0.1
				c0-0.1-0.1-0.1-0.1-0.1c0,0,0-0.1-0.1-0.1c-0.1,0-0.1,0-0.2,0c-0.1,0-0.1-0.1-0.2-0.1c-0.1,0-0.2-0.1-0.2-0.1
				c0,0-0.1-0.1-0.1-0.1c0,0,0,0-0.1,0c-0.1,0-0.3,0-0.3,0c0,0-0.1-0.1-0.1-0.2c0-0.1-0.1-0.2-0.1-0.3c0.1-0.1,0.3-0.2,0.3-0.2
				c0,0,0,0.1,0.2,0c0.1-0.1,0.2,0,0.2,0c0,0,0.1-0.1,0.2-0.1c0.1,0,0.1,0,0.1,0c0,0,0.1-0.1,0.2,0c0.1,0.1,0.1,0.1,0.2,0.1
				c0.1,0,0.2-0.1,0.3,0c0.1,0.1,0.1,0,0.2,0c0.1,0,0.2,0.1,0.2,0c0-0.1,0-0.3-0.1-0.3c-0.1,0-0.1-0.2-0.1-0.2c0-0.1,0-0.1-0.1-0.2
				c0,0-0.1-0.1,0-0.1c0.1,0,0.3,0,0.4,0c0.1,0,0.2,0.1,0.3,0.1c0,0.1,0.2,0.1,0.2,0.1c0.1,0,0.4-0.1,0.4,0c0,0,0.2,0,0.2-0.1
				c0-0.1,0-0.1,0-0.2c0-0.1,0.1-0.1,0.1-0.1s0.1-0.1,0.2-0.1c0.1,0,0.2-0.1,0.3-0.1c0.1,0,0.3-0.2,0.3-0.2s-0.1-0.3,0-0.3
				c0,0,0-0.2,0.1-0.2c0.1-0.1,0.3-0.2,0.3-0.2c0,0,0,0,0.1,0c0,0,0.1,0,0.1,0c0.1,0,0.2-0.1,0.2-0.1c0,0,0.3-0.2,0.3-0.2
				c0.1,0,0.1-0.1,0.2-0.1c0.1,0,0.3-0.1,0.3-0.1c0,0,0.1-0.2,0.2-0.2c-3.8-4-8.6-7.2-14-9c0,0,0,0,0,0.1c0,0.1,0.1,0.1,0.2,0.1
				c0.1,0.1,0.1,0,0.1,0.1c0,0,0.1,0.1,0.1,0.1c0,0,0,0.1,0,0.2c0,0,0,0,0,0.1c0,0.1,0,0.2,0,0.2S54.1,5.1,54,5.1c0,0-0.1,0-0.1,0.1
				c0,0-0.1,0-0.1,0.1c0,0.1,0.1,0.1,0.1,0.1c0,0.1,0,0.1-0.1,0.1c0,0-0.1,0-0.1,0.1c0,0,0,0.1,0,0.2c0,0.1,0,0.1,0,0.2
				c0,0.1,0,0-0.1,0.1c-0.1,0.1-0.1,0-0.1,0.1c0,0.1,0.1,0,0,0.1c-0.1,0.1-0.2,0-0.2,0c-0.1,0-0.2,0-0.1,0.1
				c0.1,0.1,0.1,0.1,0.2,0.1c0.1,0,0.1,0,0.1,0.1c0,0.1-0.1,0.1-0.1,0.1c0,0-0.1,0-0.1,0c-0.1,0-0.1,0-0.1,0.1
				c0,0.1-0.1,0.1-0.1,0.1s0-0.2,0-0.2c0,0-0.1,0-0.2,0c0,0,0-0.1-0.1-0.1c-0.1,0-0.2,0.1-0.2,0.1c0,0-0.1,0-0.1-0.1
				c0,0,0-0.1,0.1-0.2c0,0,0.1-0.1,0-0.1c-0.1,0-0.1,0.1-0.1,0c0-0.1,0-0.2,0-0.2s-0.2,0-0.2,0c-0.1,0-0.2,0-0.2-0.1
				c0,0,0-0.1,0.1-0.1C52,6,52,6,52.1,5.9c0,0,0.1-0.2,0.1-0.2c0-0.1,0-0.1,0-0.2c0,0-0.2,0.2-0.2,0.2c0,0-0.1-0.1-0.1-0.1
				c0,0,0-0.1,0-0.1c0,0,0-0.1-0.1,0c-0.1,0.1-0.1,0.1-0.1,0.2c0,0.1-0.2,0.1-0.2,0.1c0,0-0.1,0-0.1,0c0,0-0.1,0.1-0.2,0.1
				c0,0-0.2,0-0.2,0c0,0,0-0.1,0-0.1c0,0-0.1,0-0.1,0c0,0-0.1,0.1-0.1,0.1c0,0,0,0-0.1,0.1c-0.1,0,0,0.1-0.1,0c-0.1,0-0.1,0-0.1,0
				c0-0.1,0-0.2,0-0.3c0,0,0.1,0,0.1,0c0,0,0,0,0.1,0c0,0,0,0,0,0c0,0,0,0-0.1,0c0,0,0-0.1,0-0.1c0,0,0-0.1,0-0.1c0,0,0,0.1,0,0.1
				c0,0-0.1,0-0.1,0.1c0,0-0.1,0-0.1,0c0,0,0,0-0.1,0c0,0,0,0,0-0.1c0,0,0,0,0-0.1c0,0,0,0,0.1-0.1c0,0,0-0.1,0-0.1
				c0,0,0-0.1-0.1-0.1c0,0-0.1,0-0.1,0c0,0,0,0-0.1,0c0,0,0,0,0,0c0,0,0,0,0-0.1c0,0,0,0,0,0c0,0,0-0.1,0-0.1c0,0-0.1,0-0.1,0
				c0,0,0,0,0,0c0,0,0,0,0,0c0,0,0.1,0,0.1,0s0,0,0,0c0,0,0-0.1-0.1,0c0,0,0,0,0,0c0,0,0.1-0.1,0-0.1c-0.1,0-0.2,0.1-0.2,0.1
				s0,0,0,0c0,0-0.1,0-0.1,0s0,0,0-0.1c0,0,0,0,0-0.1c0,0,0-0.1,0-0.1l0,0c0,0,0,0,0,0c0,0,0,0,0,0c0,0,0,0,0,0c0,0,0,0-0.1,0
				c0,0,0,0-0.1,0c0,0,0,0,0-0.1c0,0,0,0,0-0.1c0,0,0-0.1,0-0.1c0,0,0,0,0.1-0.1l0.1-0.1c0,0,0-0.1,0-0.1c0,0,0-0.1,0-0.1s0,0,0,0
				c0,0,0,0,0.1-0.1c0,0,0-0.1,0-0.1c0,0-0.1,0-0.1,0c0,0-0.1,0-0.1,0c0,0-0.2-0.1-0.2-0.1c0.1,0,0.1,0,0.1-0.1c0,0,0,0-0.1,0
				c0,0-0.1,0-0.1,0c0,0-0.1,0-0.1,0c0,0,0.1-0.1,0.1-0.1l-0.1-0.1c0,0,0,0,0-0.1c0,0,0-0.1,0-0.1c0,0,0-0.1,0-0.1
				c-0.1,0-0.1,0-0.1,0c-0.1,0-0.1,0.1-0.1,0c0,0,0,0,0,0c0,0,0.1-0.2,0.1-0.2c0,0,0,0,0,0c0,0,0,0,0,0C49,3,49,3,49,3
				c0,0,0,0,0.1,0c0,0,0,0,0,0c0,0,0.1-0.1,0.1-0.1c0,0,0,0,0.1,0c-0.2,0-0.4-0.1-0.6-0.1c0,0,0,0,0,0c0,0,0,0,0,0
				c-2-0.4-4.1-0.6-6.2-0.6c-0.3,0-0.5,0-0.8,0c0,0-0.1,0.1-0.1,0.1c0,0.1-0.1,0.1-0.2,0.1c0,0-0.1-0.1-0.1-0.1c0,0-0.1,0-0.1,0
				c0,0-0.1,0-0.1-0.1c0,0,0,0,0,0c-0.1,0-0.1,0-0.2,0c0,0,0,0,0,0c0,0,0,0-0.1,0c-0.4,0-0.9,0.1-1.3,0.1c0,0,0,0.1,0,0.1
				c0,0,0,0.2,0,0.2c0,0,0.1,0,0.2,0c0.1,0,0,0,0.1,0.1c0,0,0,0.1,0,0.1c0,0,0,0,0.1,0c0,0,0.1-0.1,0.1-0.1c0.1,0,0,0.1,0,0.1
				c0,0,0,0.1,0.1,0.1c0,0,0.1,0.1,0.2,0.1c0.1,0,0,0.1,0,0.2c0,0,0,0.1-0.1,0.1c0,0,0,0.1,0,0.1c0,0,0,0.1,0.1,0.1
				c0,0,0,0.1,0.1,0.1c0.1,0,0,0.1,0,0.1c0,0.1,0,0,0,0.1c0,0,0,0.1,0,0.1c0,0,0,0.1,0,0.1c0,0,0,0.2,0,0.2s0,0.1,0,0.2
				c0,0-0.1,0-0.1,0c0,0-0.1,0-0.1,0.1c0,0,0,0.1,0,0.1c0,0,0,0.1,0,0.1s0,0.1-0.1,0.2c0,0-0.1-0.1-0.1-0.1c0,0-0.1,0.1-0.1,0.1
				c0,0,0,0.1,0,0.1c0,0,0.1,0.1,0.1,0.1s0,0.1,0,0.1c0,0,0,0.1,0,0.1S40,4.9,40,4.9c0,0,0,0,0-0.1c0,0-0.1,0-0.1,0
				c0,0-0.1-0.1-0.1-0.1c0,0,0-0.1,0-0.1c0,0-0.1,0-0.1,0c0,0-0.1,0-0.1,0s0-0.1,0-0.1c0-0.2,0,0-0.2,0c-0.1,0-0.1,0-0.2,0
				c0,0-0.1-0.1-0.1-0.2c0-0.1-0.1,0-0.1,0s-0.2-0.1-0.2-0.1c0,0-0.3-0.1-0.3-0.2c0-0.1-0.1,0-0.1-0.1c0,0-0.1,0-0.1-0.1
				c0,0-0.1,0-0.1,0c0,0-0.1,0-0.1,0c0,0-0.1,0.1-0.1,0.1s0,0.1,0,0.1c0,0,0,0.1,0,0.1c0,0,0,0.1,0.1,0.1c0.1,0.1,0,0,0.1,0.1
				c0.1,0,0,0.1,0,0.1c0,0,0,0.1,0.4,0.2c0.3,0.1,0.1,0.1,0.1,0.1c0.1,0,0.1,0.1,0.1,0.1c0,0,0.3,0.2,0.4,0.3c0.1,0.1,0,0,0.1,0.1
				c0,0,0,0.1,0,0.1c0,0,0,0,0,0.1c0,0.1,0,0.1,0,0.1c0,0-0.1,0-0.1,0c0,0-0.1,0-0.1,0c0,0-0.1,0-0.1,0s-0.1-0.1-0.2-0.1
				c0-0.1-0.1,0-0.2,0c-0.1,0-0.1,0-0.1-0.1c0,0-0.1,0-0.2,0c0,0,0,0-0.1,0c0,0-0.1,0-0.1,0c0,0-0.1,0-0.1,0c0,0-0.2,0-0.2,0
				c-0.1,0-0.1,0-0.1-0.1c0-0.1,0,0-0.1-0.1c0,0-0.1,0-0.1,0c0,0-0.1,0-0.1-0.1c0,0-0.1,0-0.2-0.1c-0.1-0.1-0.1,0-0.1,0
				c0,0-0.1,0-0.1,0s-0.1,0.1-0.1,0.1c0,0,0,0-0.1,0.1c0,0-0.2,0-0.2,0c0-0.1-0.1,0,0-0.1c0-0.1-0.1-0.1-0.1-0.1c0,0,0,0,0.1-0.1
				c0.1-0.1-0.1-0.1-0.1-0.1c0,0,0-0.1-0.1-0.1c0,0-0.1,0-0.1,0c0,0-0.1,0-0.2-0.1c0,0-0.1-0.1-0.1-0.1c0,0,0,0,0.1-0.1
				c0.1-0.1,0.1,0,0.2,0c0.1,0,0.1,0,0.2-0.1c0.1-0.1,0,0-0.1-0.1c0-0.1-0.1,0-0.1,0c0,0-0.2,0-0.2,0c0,0-0.1,0-0.2,0
				c0,0-0.1,0.1-0.2,0.1c0,0-0.1,0,0-0.1c0,0,0.1,0,0.1-0.2c0,0-0.1,0-0.2,0c-0.1,0-0.1,0-0.1-0.1c0-0.1,0.2,0,0.2-0.1
				c0,0-0.1,0-0.1,0c0,0-0.1,0-0.2-0.1c-0.1-0.1,0,0,0-0.1c0-0.1,0-0.1,0-0.1c0,0-0.1,0-0.2,0c0,0-0.1,0-0.1,0c0,0,0,0,0,0.1
				c0,0-0.1,0.2-0.1,0.1c0,0-0.1-0.1,0-0.2c0-0.1,0,0,0-0.1c0-0.1,0-0.1,0-0.1c-0.1,0-0.2,0-0.2,0.1c0,0,0,0,0,0c0.1,0,0,0.1,0,0.1
				c0,0-0.1,0.1-0.1,0.1s-0.1,0-0.2,0c0,0-0.1,0-0.1,0c0,0-0.1,0-0.1,0c0,0-0.1-0.1-0.1-0.1c0,0-0.1,0-0.1,0c0,0-0.1,0-0.1,0.1
				c0,0-0.1,0.1-0.1,0.1s-0.1,0.1-0.1,0.1c0,0,0,0-0.3,0.1c-0.3,0-0.1,0-0.1,0c0,0-0.1,0-0.1,0c0,0-0.1,0.1-0.2,0.1
				c-0.1,0-0.1,0-0.1,0s0,0,0-0.1c-0.6,0.2-1.3,0.4-1.9,0.6c0,0.2,0,0.1-0.1,0.2c-0.2,0.1-0.2,0.2-0.4,0.1c0,0-0.2,0-0.3-0.1
				c-3.2,1.2-6.2,2.8-8.8,4.9c0.1,0,0.1-0.1,0.2-0.1c0,0,0.1,0,0.2,0c0.1,0,0.1,0,0.3,0.1c0.2,0.1,0,0,0,0.1c0,0.1,0,0.1,0,0.2
				c0.1,0.1,0,0.2,0,0.2c0,0.1,0,0.1,0.1,0.2c0.1,0.1,0.1,0.1,0.1,0.2c0,0,0,0.1-0.2,0.2c-0.1,0.1-0.1,0.1-0.1,0.1
				c0,0.1,0.1,0,0.2,0c0.1,0,0.2,0,0.3-0.1c0.1,0,0.2-0.1,0.3-0.1c0.1-0.1,0.1,0,0.5-0.1c0.4-0.1,0.1,0,0.2,0c0.1,0,0.1,0,0.1,0.1
				c0.1,0,0,0.1,0.1,0.2c0.1,0,0.1,0,0.2,0c0.1,0,0.1,0.1,0.2,0c0.1,0,0.1,0.1,0.2,0.1c0,0,0.1,0,0.1,0c0,0,0.1,0,0.2,0.1
				c0,0,0.1,0.1,0.2,0.1c0,0.1,0,0.1,0.2,0.1c0.2,0.1,0,0.1,0.1,0.3c0,0.1,0.1,0,0.2,0c0.1,0,0.1,0,0.4,0.1c0.3,0.1,0.1,0.1,0.2,0.2
				c0,0,0,0,0.2,0c0.2,0,0.1,0.1,0.2,0.3c0.2-0.1,0,0,0.2-0.1c0.2-0.1,0.1,0,0.3-0.1c0.1,0,0.2,0,0.3,0c0.1,0,0,0.1,0.1,0.1
				c0.1,0,0.2,0,0.4,0c0.1,0,0.2,0,0.3-0.1c0.1,0,0.2,0,0.3,0.1c0.1,0.1,0,0,0,0.1c0,0,0,0,0,0.1c0.2,0.3,0,0.1,0,0.2
				c0,0.1-0.1,0.1-0.1,0.2c0,0-0.1,0.2-0.1,0.2c0,0.1,0.1,0.1,0.1,0.1c0,0.1,0,0.1,0,0.1c0,0,0,0.2,0.1,0.3c0.1,0.1,0,0.1,0,0.2
				c0,0.1,0,0.1-0.1,0.2c0,0.1-0.1,0.1-0.1,0.1c0,0,0,0.1,0.1,0.1c0,0.1,0,0.1,0.1,0.1c0.1,0,0,0.1,0.1,0.1c0.1,0,0,0.1,0.2,0.2
				c0,0,0,0,0,0c0.1,0.1,0,0,0,0c0,0-0.1,0.1-0.2,0.2c-0.2,0.2,0,0,0.2,0c0.1,0,0.1,0.1,0.2,0.2c0.2,0.1,0,0.1,0.1,0.1
				c0.1,0,0.1,0.1,0.2,0.1c0.1,0,0,0.1,0,0.2c0,0.1,0,0-0.1,0.1c0,0,0,0.1-0.1,0.1c-0.1,0.1-0.1,0.1-0.1,0.1
				c0.1-0.1,0.1-0.1,0.4-0.2c0.1,0,0.2-0.1,0.3,0c0.1,0.1,0.3,0.4,0.2,0.2c0-0.1-0.1-0.1-0.1-0.2c0-0.1,0-0.1,0.1-0.2
				c0.1-0.1,0.1-0.1,0.2,0c0,0,0.1,0.1,0.2,0.1c0,0.1,0.2-0.1,0.2-0.2c0-0.1,0-0.1-0.1-0.2c0,0,0-0.1,0.1-0.1
				c0.1-0.1,0.1-0.1,0.1-0.2c0.1,0,0.1,0,0.2-0.1c0-0.1-0.1-0.1,0-0.2c0-0.1-0.1,0-0.2-0.1c0-0.1-0.1-0.2,0-0.4c0-0.2,0-0.2,0-0.3
				c0.1-0.1,0-0.1,0.1-0.2C30,13,29.9,13,29.8,13c0-0.1,0-0.1,0-0.2c0-0.2,0-0.1,0-0.2c0,0-0.2-0.2-0.2-0.3c0-0.1,0-0.1,0.2-0.2
				c0.1-0.1,0.1,0.1,0.2,0c0.1,0,0.3,0,0.3,0c0.1,0,0.2-0.1,0.3-0.1c0.1,0,0,0,0.1-0.1c0.1-0.1,0.2-0.2,0.3-0.2
				c0.1-0.1,0.2-0.1,0.4-0.2c0.2-0.1,0.2-0.2,0.2-0.3c0,0,0.1-0.2,0.1-0.2s0-0.1,0-0.2c0-0.1,0.1-0.3,0.1-0.3
				c0.2-0.3,0.1-0.2,0.1-0.4c0-0.1,0-0.1,0-0.1c0-0.1,0-0.1,0-0.2c0-0.1-0.1-0.2-0.1-0.3c0-0.1-0.1-0.1-0.1-0.2c0-0.1-0.2,0-0.4-0.2
				c-0.1-0.1-0.4-0.1-0.5-0.2c-0.1,0,0.1-0.2,0.2-0.3c0.1-0.1,0.1-0.2,0.1-0.2s0.1,0,0.3-0.2c0.1-0.1,0.1-0.1,0.2-0.3
				c0-0.1,0.2-0.1,0.3-0.1c0.1,0,0-0.2,0-0.3c0-0.1-0.1-0.1-0.1-0.2c0-0.1,0-0.1,0-0.2c0-0.1-0.1-0.2-0.1-0.3c0-0.1,0-0.1,0-0.2
				c0-0.1,0.1-0.1,0.1-0.2c0.1-0.1,0-0.2,0.1-0.4c0.1-0.2,0,0,0-0.1c0-0.1-0.1-0.1,0-0.3c0-0.2-0.1-0.1-0.1-0.3c0-0.2,0-0.1,0.1-0.2
				c0.1-0.1,0.2-0.1,0.3-0.2c0.1-0.1,0.2-0.1,0.3-0.1c0.1,0,0.1,0.1,0.2,0.1c0,0,0.1,0.1,0.4-0.1c0.3-0.1,0.1,0.1,0.2,0.1
				c0.1,0,0,0.1,0,0.2c0,0.1,0,0.1,0.2,0c0.1-0.1,0,0,0.1,0c0.1,0,0.1,0,0.2,0c0.1,0,0.1,0.1,0.1,0.1c0.1,0.1,0,0,0.1-0.1
				c0.1-0.1,0.1-0.1,0.2-0.1c0.1,0,0.2-0.1,0.4,0c0,0,0-0.1,0.2-0.1c0.3,0,0.1,0.1,0.2,0.2c0.1,0,0.1,0.1,0.1,0.2c0,0,0,0.2,0,0.1
				c0,0,0.2,0,0.3,0c0.1,0,0.1,0.1,0.1,0.1c0.1,0,0,0.1,0,0.2c0,0,0.1,0.2,0.1,0.2c0.1,0,0.2,0,0.3,0.1c0,0,0.1,0,0.1,0
				c0,0,0.2-0.1,0.3-0.1c0,0-0.1,0.1,0.1,0.1c0.2,0,0.2-0.1,0.2-0.1c0.1,0,0.1,0,0.2,0.1c0,0,0,0.1-0.3,0.4c-0.2,0.3,0,0.2-0.1,0.2
				c0,0.1,0,0.1,0,0.2c0,0.2-0.1,0.2-0.1,0.2c0,0,0,0.1,0,0.2c0,0.1,0.1,0.1,0.1,0.4c0,0.3,0-0.1,0.1,0.1c0,0.1,0,0.1,0,0.1
				c0,0,0,0,0,0c0,0.1-0.1,0-0.1,0.1c-0.1,0-0.1,0-0.2,0c-0.1,0-0.1,0.2,0.1,0.3c0.2,0.1,0,0,0.2-0.1c0,0,0.4-0.2,0.5-0.2
				c0.2,0,0,0,0.1,0.1c0.1,0.1,0,0.3,0,0.3c0,0,0,0.1-0.2,0.2c-0.1,0.1,0,0.2,0.1,0.1c0.1-0.1,0,0,0.2-0.2c0.2-0.2,0.1-0.1,0.2,0
				c0.1,0-0.1,0.3,0.1,0.1c0.1-0.1,0,0,0.2-0.1c0.1,0,0.2,0,0.2-0.1c0,0,0,0,0,0c0,0,0,0,0.1-0.1c0.1-0.1,0,0,0.2-0.1
				c0.2-0.1,0,0,0.1-0.1c0.1-0.1,0.1,0.2,0.2,0.2c0.1,0,0-0.2,0.3-0.4c0.3-0.2,0-0.1-0.1-0.1c0-0.1,0.1-0.1,0.1-0.3
				c0-0.2,0.1,0,0.2-0.1c0.1-0.1,0-0.1,0-0.2c0-0.1-0.1-0.1,0-0.2c0-0.1,0.2,0,0.3-0.2l0,0c0.1-0.2,0,0,0.1-0.1
				c0.1-0.1,0-0.1,0.3-0.4c0.1-0.1,0,0.1,0,0.2c0,0.1,0,0.2,0.1,0.2c0.1,0,0,0.2,0.1,0.3c0.1,0.1,0.1,0.1,0.2,0.1c0,0,0,0.1,0,0.1
				c0,0.1-0.2-0.2,0,0.1C40.4,7.9,40.4,8,40.4,8c0,0,0,0,0.1,0c0,0-0.1,0.3,0,0.4c0.1,0.1,0.1,0,0.2,0c0.1,0,0,0.1,0.1,0.2
				c0.1,0.1,0,0.2,0,0.2c0.1,0,0.1,0.1,0.2,0.1C41.1,9,41.1,9,41.2,9.1c0.1,0.1-0.1,0.1-0.1,0.1c0,0-0.1,0.1,0,0.2
				c0.1,0.1,0.1,0.2,0.2,0.2c0.1,0,0,0.3,0.1,0.3c0.1,0-0.1,0.2-0.1,0.2s-0.1,0-0.3,0.1c-0.2,0,0,0.1,0,0.1s0,0.1,0.1,0.1
				c0.1,0,0.1,0.1,0.1,0.1c0.1,0,0,0.2,0.1,0.2c0.1,0,0.1,0.2,0.1,0.2c0.1,0-0.1-0.1,0.1-0.1c0.2,0,0,0,0.1,0c0.1,0,0,0,0.1,0.1
				c0.1,0.1,0.1,0.2,0.1,0.2s0,0.3,0,0.3c0,0,0.1,0,0.1,0c0.1,0,0.2,0,0.2,0.1c0,0-0.1,0.2-0.1,0.2s0.1,0,0.2-0.1
				c0.1-0.1,0.1-0.1,0.2-0.2c0.1-0.1,0.1,0.1,0.2,0.1c0,0,0,0.1,0,0.2c0.1,0.1,0.1,0,0.2,0c0.1-0.1,0.2-0.1,0.4-0.1
				c0.1,0,0,0.1,0.1,0.3c0,0,0.3,0.1,0.3,0.1c-0.1,0-0.1,0.1-0.2,0.1c-0.1,0-0.2,0.1-0.2,0.1c0,0-0.2,0-0.3,0.1c0,0-0.3,0.1-0.3,0
				c0,0-0.1,0-0.2,0.1c0,0.1-0.1,0.1-0.1,0.1c0,0-0.2,0.1-0.2,0.2c0,0.1-0.4,0-0.4,0.1c-0.1,0-0.1,0.1,0,0.2
				c0.1,0.1,0.2,0.1,0.2,0.1c0,0,0.3-0.1,0.4-0.2c0.2-0.1,0.2-0.1,0.2-0.1c0.1,0,0.1-0.1,0.2-0.1c0,0,0.2-0.1,0.3-0.2
				c0.1,0,0.3-0.1,0.4-0.1c0.1,0,0.2,0,0.2,0.2c0,0.2-0.1,0.4,0,0.3c0.1,0,0.1-0.1,0.1-0.2c0,0,0.1-0.2,0.2-0.1c0.1,0,0.3,0,0.4,0.1
				c0.1,0,0.3,0.1,0.4,0.2c0.1,0.1,0,0.1-0.1,0.2c0,0.1,0.1,0.1,0.1,0.3c0,0.1-0.2,0.2-0.2,0.3c0,0.1,0,0.1,0.1,0.2
				c0.1,0.1,0.1,0.1,0.2,0.2c0,0.1-0.1,0.1-0.1,0.2c-0.1,0.1-0.2,0.1-0.3,0.2c0,0-0.4,0.1-0.4,0.1c0,0-0.2,0-0.3,0.1
				c-0.1,0.1-0.3,0.1-0.4,0.1c-0.1,0-0.2,0-0.3,0.1c0,0-0.2,0.2-0.3,0.3c0,0.1-0.4,0.2-0.5,0.3c-0.1,0.1-0.2,0.1-0.3,0.1
				c0,0-0.4,0.2-0.5,0.2c-0.1,0-0.3,0.1-0.3,0.1c-0.2,0-0.4,0-0.5,0c0,0-0.1-0.1-0.1-0.1c0,0-0.4,0.1-0.4,0c-0.1,0-0.2,0-0.2,0
				c0,0,0,0-0.1-0.1c0,0-0.1-0.1-0.1-0.1c0,0-0.3,0.1-0.4,0.1c-0.1,0-0.2,0-0.2,0c-0.1,0-0.8,0-0.8,0c-0.1,0-0.1,0-0.2,0.1
				c0,0-0.3,0.1-0.4,0.2c0,0-0.3,0.3-0.3,0.3c-0.1,0.1-0.1,0.1-0.2,0.2c0,0-0.3,0.1-0.3,0.2c0,0-0.2,0-0.2,0c0,0-0.1,0-0.1,0
				S36,16.7,36,16.8c0,0-0.2,0.2-0.2,0.3c0,0.1-0.2,0.1-0.3,0.2c-0.1,0-0.1,0.1-0.1,0.1c-0.1,0.1-0.1,0.1-0.2,0.2
				c-0.1,0.1-0.2,0.2-0.3,0.2c-0.1,0-0.4,0.2-0.4,0.2s-0.2,0.4-0.2,0.3c0,0,0.2-0.1,0.5-0.4c0.3-0.3,0.1-0.1,0.2-0.2
				c0.1-0.1,0.3-0.3,0.5-0.4c0.2-0.1,0.1-0.1,0.3-0.2c0.1-0.1,0.3-0.2,0.4-0.2c0.1-0.1,0.1,0,0.3-0.1c0.2-0.1,0.2-0.1,0.3-0.1
				c0.1,0,0.1-0.1,0.3-0.1c0.1-0.1,0.1,0,0.2-0.1c0,0,0.4-0.1,0.4-0.1c0.1,0,0.2,0,0.2,0s0.3,0,0.4,0.1c0.1,0.1,0.1,0.1,0.2,0.2
				c0,0.1,0.2,0.1,0.2,0.2c0,0.1-0.2,0.2-0.3,0.3c-0.1,0.1-0.2,0.1-0.3,0.2c-0.1,0.1-0.6,0.1-0.6,0.1s0.1,0.1,0.1,0.1
				c0,0,0.1,0.1,0.1,0.1c0,0.1,0.4-0.1,0.4-0.1c0.1,0,0.1,0.1,0.1,0.2c0,0.1-0.3,0.3-0.3,0.3s0.1,0.1,0.1,0.2c0,0,0.1,0.2,0.2,0.2
				c0,0,0,0.1,0,0.1s0,0.1,0,0.2c0,0,0.1,0.1,0.1,0.1s0.1,0,0.2,0.1c0,0,0.1,0.2,0.2,0.2c0.1,0,0.2,0,0.3,0c0,0,0,0.2,0.2,0.2
				c0.1,0,0.3-0.1,0.4-0.1c0.1,0,0.1,0.2,0.2,0.1c0-0.1,0.1-0.1,0.3-0.2c0.2-0.1,0.2,0,0.3,0c0.1,0,0,0.1,0,0.2
				c0,0.1,0.2,0.2,0.2,0.2c-0.1,0-0.2,0-0.2,0c0,0-0.2,0.1-0.2,0.2c0,0.1-0.4,0.2-0.5,0.2c-0.1,0-0.4,0.1-0.5,0.1
				c-0.1,0-0.4,0.1-0.5,0.1c-0.1,0-0.3,0.1-0.3,0.1c-0.1,0-0.1,0.1-0.2,0.2c0,0.1-0.3,0.3-0.4,0.3c-0.1,0.1-0.3,0.1-0.4,0.1
				c-0.1,0-0.2-0.1-0.3,0c-0.1,0-0.1-0.1,0-0.2c0-0.1-0.1-0.1,0-0.2c0.1-0.1,0.1-0.2,0.3-0.3c0.1-0.1,0.2-0.2,0.4-0.3
				c0.2-0.1,0.1,0,0.2,0c0.1,0,0,0.1,0.4-0.1c0.4-0.2,0.1,0,0.3,0c0.2,0,0.1-0.1,0.1-0.1c0-0.1-0.1-0.1-0.1-0.1
				c-0.1,0-0.2,0-0.3,0.1c-0.1,0-0.1,0-0.1-0.1c0,0,0-0.2,0-0.1c-0.1,0,0,0-0.1,0c-0.1,0-0.1,0.1-0.1,0.2c-0.1,0-0.2,0.1-0.3,0.1
				c-0.1,0-0.3,0.1-0.3,0.1c0,0-0.2-0.1-0.2-0.1s0,0-0.2,0.2c-0.1,0.1-0.2,0-0.4,0c0,0,0,0,0,0c0.1,0,0.1,0,0,0.2
				c0,0.1-0.2,0.1-0.2,0c0,0-0.1,0.1-0.1,0.1c0,0-0.1,0.1-0.1,0.1c-0.1,0-0.3,0.1-0.4,0.1c0,0-0.2,0-0.3,0c0,0-0.2,0-0.3,0.1
				c0,0-0.1,0.2-0.1,0.2c0,0.1-0.2,0-0.3,0.1c-0.1,0,0.1-0.1-0.2,0c-0.3,0.1,0,0.1-0.2,0.2c-0.1,0.1-0.1,0.2-0.3,0.3
				c-0.1,0.1-0.2,0.2-0.2,0.3c0,0.2,0,0.1-0.1,0.3c-0.1,0.2,0,0,0.1,0.1c0.1,0.1,0,0.1,0,0.2c0.1,0.1,0.1,0.1,0.1,0.2
				c0,0.1-0.2,0.1-0.2,0.2c-0.1,0.1-0.2,0-0.2,0s-0.1,0.2-0.2,0.2c-0.1,0.1,0,0-0.1,0c-0.1,0-0.2-0.1-0.5,0.1c-0.3,0.2-0.1,0-0.2,0
				c-0.1,0-0.2,0-0.3,0c-0.1,0-0.1,0.1-0.2,0.1c-0.1,0-0.1,0.1-0.1,0.1c-0.1,0.1-0.1,0.1-0.2,0.2c0-0.1,0-0.2,0.1-0.3
				c0,0-0.1,0-0.2,0.1c0,0-0.1,0.1-0.1,0.2c0,0.1,0.2,0.1,0.2,0.1c0,0.1-0.1,0.2-0.1,0.3c0,0.1-0.1,0.1-0.1,0.2
				c0,0.1-0.3,0.3-0.4,0.4c-0.1,0.1-0.1,0-0.1,0c0,0-0.1,0-0.2,0c-0.1,0-0.1-0.1-0.2-0.1c0,0,0,0.1,0,0.2c0,0.2,0.1,0.1,0,0.1
				c0,0.1,0.1,0.1,0.1,0.2c0,0.1-0.1,0.2-0.1,0.2c0,0,0,0.1-0.1,0.1c-0.1,0.1-0.1,0.1-0.1,0.2c0,0.1-0.1,0.2-0.3,0.1
				c-0.1-0.1,0.1-0.2,0.1-0.3c0-0.1-0.1-0.1-0.2-0.2c-0.1-0.1,0,0,0-0.2c0-0.2,0.2-0.5,0.1-0.5c-0.1,0,0,0.2-0.3,0.6
				c-0.2,0.4-0.1,0-0.2,0.1c-0.1,0,0,0.1,0,0.4c0,0.1,0.1,0.2,0.1,0.2s0.1,0.1,0.1,0.2c0,0.1-0.1,0-0.2,0c-0.1,0,0,0.1,0.2,0.1
				c0.1,0.1,0.1,0.1,0.2,0.1c0.1,0,0.1,0.1,0.1,0.1c0,0.1,0,0.1,0,0.3c0,0.1-0.1,0.1-0.1,0.1s0,0.1,0,0.2c0,0.1,0.1,0,0.3,0.1
				c0,0,0,0.1,0,0.2c0,0.1-0.2,0.1-0.3,0.2c-0.1,0-0.1,0-0.2,0c-0.2,0,0,0.1-0.1,0.1c-0.1,0.1,0,0.1,0.3,0.2c0,0-0.1,0.1-0.2,0.2
				c-0.1,0.1-0.1,0-0.1,0c0,0-0.2,0.1-0.3,0.2c0,0.1-0.1,0.1-0.3,0.3c-0.2,0.3-0.1,0.1-0.2,0.1c-0.1,0-0.2,0-0.3,0
				c-0.2-0.1-0.1,0-0.2,0.1c-0.1,0.1-0.1,0.2-0.2,0.2c-0.1,0.1-0.1,0.1-0.2,0.2c-0.1,0.1-0.1,0.1-0.3,0.2c-0.1,0.1-0.3,0.2-0.5,0.4
				c-0.2,0.2-0.1,0.1-0.2,0.2c0,0.1-0.1,0.2-0.2,0.3c-0.1,0.1,0,0.1,0,0.3c0,0.2,0.1,0.1,0,0.2c-0.1,0.2,0,0.1,0,0.2
				c0,0.1,0,0.1,0.1,0.3c0,0.2,0.2,0.2,0.2,0.2c0,0.1,0.1,0.1,0.2,0.2c0,0.1,0,0.1-0.1,0.2c-0.1,0.1,0,0.1,0.1,0.4
				c0.1,0.3,0,0,0,0.1c0,0.1,0,0.2,0.1,0.2c0.1,0.1,0,0.1,0.1,0.2c0.1,0.1,0.1,0.1,0.1,0.1c0,0.1,0,0.1,0,0.1c0,0.1,0,0.1,0,0.3
				c0,0.2,0,0.2,0.1,0.2c0.1,0,0,0.2,0,0.2s-0.1,0.1-0.1,0.2c0,0.1-0.1,0.2-0.1,0.2c-0.1,0.1-0.1,0.1-0.2,0.2c0-0.1-0.1-0.1-0.2-0.1
				c0,0-0.1,0-0.1-0.1c0,0-0.1-0.2-0.1-0.3c0-0.1-0.1-0.1-0.2-0.1c-0.1,0-0.1,0-0.1,0c-0.1-0.1-0.1-0.1-0.2-0.2
				c-0.1,0.1,0-0.1,0-0.2c0-0.1-0.1-0.2-0.1-0.2c0,0-0.1-0.1-0.1-0.1s-0.1-0.2-0.2-0.2c-0.1,0,0-0.1-0.2-0.3c0,0,0-0.1,0-0.2
				c0-0.1,0-0.2,0.1-0.4c0,0,0-0.1,0-0.1c0,0-0.1-0.2-0.1-0.2c0,0-0.1-0.1-0.1-0.2c0-0.1-0.1-0.1-0.2-0.1c0-0.1-0.1-0.1-0.2-0.2
				c-0.1,0-0.1,0-0.1-0.1c-0.1-0.1,0-0.1-0.2,0c0,0-0.2,0.1-0.2,0.1c0,0-0.2,0.1-0.4,0.1c0,0-0.2-0.1-0.2-0.1c0-0.1-0.2-0.2-0.2-0.2
				c0,0,0-0.1-0.1-0.1c-0.1,0-0.2,0-0.3-0.1c0,0-0.3,0-0.3,0c0,0-0.2,0-0.2,0c-0.1,0-0.1,0-0.2,0.1c0,0.1-0.2,0.1-0.3-0.1
				c0-0.1-0.1,0.1-0.1,0.1c0,0.1-0.1,0.1-0.1,0.1s-0.3-0.1-0.4-0.1c-0.1-0.1-0.1,0-0.2,0c-0.1,0-0.1,0-0.2,0c-0.1,0-0.2,0-0.3,0
				c-0.1,0,0-0.1-0.3,0.1c-0.1,0.1,0.2,0,0.3,0.1c0.1,0,0.1,0.1,0.1,0.1c0,0,0.1,0,0.1,0.1c0,0,0,0.1,0,0.1c0,0.1,0.1,0.2,0.1,0.2
				c0.1,0,0,0.1-0.1,0.2c-0.1,0.1-0.1,0-0.2-0.1c0-0.1-0.2-0.1-0.2-0.1c0.1,0-0.1,0.2-0.3,0.2c-0.2,0,0-0.1,0-0.1s0,0-0.1,0
				c-0.1,0,0,0-0.1,0.1c-0.1,0.1-0.1,0-0.2,0c-0.1-0.1,0-0.1-0.1-0.2c-0.1-0.1-0.1,0-0.2-0.1c-0.1,0-0.1-0.1-0.4-0.1
				c-0.1,0-0.1,0-0.2,0c0,0-0.1,0-0.3,0c-0.2-0.1-0.1,0-0.2-0.1c-0.1-0.1-0.1-0.1-0.2-0.1c-0.1,0-0.3,0.1-0.5,0.2c0,0-0.1,0-0.3,0
				c-0.1,0-0.2,0-0.2,0.1c0,0.1,0,0,0,0.1c0,0.1-0.1,0.1-0.2,0.2c-0.1,0.1-0.1,0.1-0.1,0.1c0,0-0.3,0.1-0.4,0.1c-0.1,0-0.1,0-0.2,0
				c-0.1,0-0.1,0.1-0.1,0.1c0,0-0.1,0-0.2,0c-0.1,0,0,0.2-0.2,0.3c0,0-0.1,0.1-0.2,0.1c-0.1,0.1-0.1,0.2-0.1,0.3
				c0,0.1,0.1,0.1,0.2,0.2c0.1,0.1,0.1,0.2,0.1,0.3c0,0.2,0,0.1,0,0.3c0,0.1,0,0.1,0,0.2v0c0,0.1,0,0.1,0,0.2c0,0.1-0.2,0.3-0.3,0.3
				c0,0,0.1,0.4,0.2,0.5c0,0.1-0.2,0.2-0.2,0.2c0,0,0,0.1,0.1,0.2c0,0.1,0.1,0.2,0,0.3c0,0.1,0,0.1-0.1,0.2c0,0.1,0,0.3,0,0.5
				c0,0.2,0.1,0.2,0.2,0.3c0.1,0.1,0.1-0.1,0.3,0.4c0.3,0.5,0,0,0.1,0.2c0.1,0.2,0.2,0.2,0.3,0.3c0.1,0.1,0.1,0.2,0.2,0.2
				c0.1,0,0.1,0.3,0.2,0.3c0.1,0,0.2,0.3,0.2,0.3c0,0,0,0.1,0.2,0.1c0,0,0.1,0,0.3,0.1c0.2,0,0,0,0.1,0c0.1,0,0.1,0.1,0.2,0.2
				c0.1,0,0.1,0.1,0.2,0.2c0.1,0,0.1,0,0.3-0.1c0.1-0.1,0,0,0.2-0.1c0.2-0.1,0.1,0,0.2,0c0.1,0,0.2,0,0.3,0C20,38,20,38,20,38
				s0.2-0.1,0.3-0.2c0.2-0.1,0.1,0.1,0.1,0c0.1,0,0.1,0.1,0.3,0c0.1,0,0-0.1,0.1-0.1c0.1,0,0.1-0.1,0.2-0.2c0.1-0.1,0-0.1,0-0.2
				c0-0.1,0-0.1,0.1-0.1c0.1-0.1,0-0.1,0-0.5c0-0.5,0-0.1,0.2-0.3c0.2-0.2,0,0,0.1-0.1c0.1-0.1,0.1,0,0.3,0c0,0,0.3,0,0.5-0.2
				c0.1-0.1,0.1,0,0.2,0c0.1,0,0.4,0.1,0.5,0.1c0.1,0,0.1,0,0.2-0.1c0.2-0.1,0.1,0,0.3,0c0.1,0,0.1,0.1,0.2,0.2
				c0.1,0.1,0,0.1-0.1,0.2c-0.1,0.2-0.1,0.1-0.3,0.3c-0.2,0.2-0.1,0.1-0.2,0.2c-0.1,0.1,0,0.2,0,0.3c0,0.2,0,0.1,0,0.2
				c0,0.1,0,0.1-0.1,0.2c0,0.1,0,0.2,0,0.2c0,0-0.1,0.2-0.1,0.2c0-0.1-0.1-0.3-0.1-0.4c0-0.1-0.1,0-0.1,0c-0.1,0.1,0,0.2,0.1,0.2
				c0,0,0.1,0.1,0.1,0.2c0,0,0,0.1-0.1,0.1c-0.2,0,0,0.1,0,0.2c0,0.1,0,0.3,0,0.4c0,0.1,0,0.1,0,0.2c0,0.1-0.1,0.1-0.1,0.2
				c0,0-0.2,0.1-0.2,0.3c0,0,0,0,0,0c0,0.2,0.2,0.1,0.3,0c0.1-0.1,0.1,0,0.2,0c0,0,0.1,0,0.1,0c0.2-0.1,0.1,0,0.3,0
				c0.2,0,0.1,0.1,0.3,0c0.2,0,0.2,0.1,0.4,0.1c0.2,0,0.1-0.1,0.3-0.1c0.1,0,0.4,0,0.5-0.1c0.1,0,0.2,0.1,0.3,0.1
				c0.1,0,0.1,0.1,0.1,0.1c0,0,0.4,0.1,0.5,0.3c0,0,0.1,0.1,0.2,0.2c0,0,0,0,0,0c0.1,0.1,0.1,0.1,0.2,0.1c0.1,0.1,0.1,0.1,0.1,0.2
				c0,0.1-0.1,0.3-0.1,0.3c0,0-0.1,0.2-0.1,0.4c0,0.2,0,0.1-0.1,0.2c0,0.1,0,0.2,0,0.3c0,0.1,0,0.1,0,0.3c0,0.1,0,0.2,0,0.3
				c0,0.1,0,0.2,0,0.2c0,0,0,0.1,0.3,0.3c0,0,0,0,0.1,0.1c0,0,0,0.1,0.1,0.2c0.1,0.1,0.1,0.2,0.2,0.3c0.1,0.1,0.1,0.1,0.2,0.2
				c0.1,0,0.1,0.1,0.1,0.2c0.1,0.1,0.2,0.1,0.3,0.2c0.1,0.1,0.1,0.1,0.4,0.1c0.2,0,0.3,0,0.3,0c0.1,0,0.1,0,0.2,0c0,0,0.1,0,0.3,0
				c0.2-0.1,0.2,0,0.3-0.1c0.1-0.1,0,0,0-0.2c0-0.2,0.1,0.1,0.2-0.1c0.1-0.2,0.1,0,0.2,0c0.1,0,0.1,0,0.3,0.1c0,0,0,0,0,0l0,0
				c0,0,0,0,0-0.1c0-0.1,0,0,0.1-0.1c0,0,0.1-0.1,0.1-0.2c0.1-0.1,0.1,0,0.1,0c0,0,0,0,0.1,0c0,0,0-0.2,0-0.3c0-0.1,0,0,0-0.1
				c0,0,0.1-0.1,0.1-0.1c0,0,0.1,0,0.2,0c0.1,0,0,0.1,0.2-0.1c0.1-0.2,0,0,0.1,0c0.1,0,0.1,0,0.2,0c0.1,0,0,0,0.1,0
				c0.1,0,0,0,0.1-0.1c0.1-0.1,0,0,0.1-0.1c0.1,0,0.1-0.1,0.1-0.1c0,0,0.1-0.1,0.1-0.1c0.1,0,0.1,0,0.2,0c0.1,0,0.1,0,0.2,0
				c0.1,0,0.1,0.1,0.1,0.1c0,0,0,0.1,0,0.1c0,0-0.1,0-0.1,0s-0.1-0.1,0,0c0,0,0,0.1-0.1,0.1c0,0-0.1,0-0.2,0c-0.1,0,0,0-0.1,0.1v0
				c0,0.1,0.1,0,0.1,0.1c0,0,0.1,0.3,0,0.4c-0.1,0.2,0,0.1,0,0.2c0,0.1,0.1,0.2,0.2,0.2c0.1,0,0.1,0.1,0.2,0c0.1-0.1,0,0,0-0.2
				c0-0.1,0-0.1,0-0.2c0-0.1-0.2-0.1-0.2-0.2c0-0.1,0-0.1,0-0.1c0,0,0-0.1,0.1-0.1c0.1,0,0.2,0,0.2-0.1c0.1-0.1,0,0,0-0.1
				c0,0,0.1-0.1,0.1-0.2c0.1-0.1,0.1,0,0.2,0c0.1,0,0,0.1,0.1,0.1c0,0.1,0,0.1,0.1,0.1c0,0,0.1,0.1,0.1,0.1c0.1,0,0.2,0,0.3,0
				c0.1,0,0.1,0.1,0.1,0.1s0.1,0.1,0.1,0.1c0,0,0,0,0,0c0,0,0,0,0,0c0.1,0,0,0,0.1,0.1c0.1,0.1,0.1,0,0.3-0.1c0.2-0.1,0.1,0,0.1,0
				c0.1,0,0.1,0,0.1,0c0.1,0,0,0,0.1,0.1c0.1,0,0,0.1,0.1,0.1c0.1,0,0.1,0.1,0.2,0c0.1,0,0.2,0,0.2,0s0,0,0.1-0.1
				c0.1-0.1,0.1,0,0.2,0c0.1,0,0.1,0,0.1,0c0,0,0.2,0,0.2,0c0,0,0.1,0,0.2,0c0,0-0.1,0-0.1,0.1c-0.2,0.1,0,0,0,0c0,0,0,0.1,0,0.1
				c0,0.1,0.1,0,0.1,0s0,0.1,0,0.1c0,0,0.1,0,0.1,0c0,0,0.1-0.1,0.1-0.1c0,0,0,0,0,0.1c0,0,0,0.1,0.1,0c0.1,0,0.1,0,0.1,0
				c0,0,0,0,0.1,0.1c0,0,0,0.1-0.1,0.1c0,0.1,0,0.1-0.1,0.1c0,0.1,0,0,0.2,0c0,0,0.1,0,0.2,0c0.1,0,0.1,0.1,0.2,0.1
				c0.1,0,0,0.1,0.1,0.1c0,0,0,0,0,0c0,0,0.1,0,0.1,0c0.1,0,0.1,0,0.1,0.1c0,0,0,0.1,0.1,0.1c0.1,0,0.1,0.1,0.1,0.1
				c0,0,0.1,0.1,0.1,0.1c0,0.1,0,0,0,0.1c0,0.1,0.1,0,0.2,0c0.1,0,0.1,0,0.1,0c0,0,0.2,0.1,0.3,0.2c0.1,0.1,0.1,0.1,0.2,0.2
				c0,0,0,0,0,0c0,0,0,0,0,0c0,0,0,0,0.1,0c0.1,0,0.1,0,0.1,0c0,0,0,0,0.1-0.1c0.1,0,0.1,0,0.2,0c0.1,0,0,0,0.1,0c0,0,0.1,0.1,0.2,0
				c0.1,0,0.1,0,0.1,0c0,0,0.1,0,0.1,0c0,0,0,0,0,0c0.1,0,0,0.1,0.1,0.1c0,0,0,0,0.1,0c0.1,0,0,0.1,0.1,0.1c0.1,0,0.1,0.1,0.2,0.1
				c0.1,0,0.1,0,0.2,0.1c0.1,0,0.2,0.1,0.2,0.2c0,0,0.1,0.1,0.1,0.1c0,0,0,0.1,0,0.1s0.1,0,0.2,0.1c0.1,0.1,0,0.1,0.1,0.1
				c0,0.1,0,0.1,0.1,0.2c0.1,0.1,0,0.1,0,0.1c0,0,0,0.1,0,0.1c0,0,0,0.1,0,0.1c0,0,0.1,0.1,0.1,0.1c0,0,0.1,0.1,0.1,0.1
				c0,0,0.1,0.1,0,0.1c0,0,0,0.1,0,0.1c0.1,0.2,0,0,0,0.1c0,0.1,0,0.1,0,0.1c0,0,0,0-0.1,0.1c-0.1,0-0.1,0-0.2,0.1
				c-0.1,0,0,0-0.1,0.1c0,0.1,0,0-0.1,0.1c0,0,0,0,0.1,0.2c0,0,0.1,0.1,0.1,0.1c0,0,0,0.1,0.1,0.1c0,0,0-0.1,0-0.2
				c0-0.1,0-0.1-0.1-0.1c0,0,0,0,0.1-0.1c0.1-0.1,0,0,0.2,0c0.1,0,0.1,0.1,0.2,0c0.1,0,0.1,0,0.1,0c0,0,0.1,0,0.2,0
				c0.1,0,0,0.1,0,0.1c0,0,0,0.1,0,0.1c0,0.1,0,0.1,0,0.1c0,0.1,0,0.1,0,0.1s-0.1,0.1-0.2,0.1c-0.1,0-0.1,0-0.2,0
				c-0.1,0-0.1,0-0.1,0c0,0-0.3-0.1-0.2,0c0.1,0,0.1,0.1,0.1,0.1c0,0,0.1,0.1,0.1,0.1s0.1,0,0.2,0c0.1,0,0.1,0.1,0.1,0.1s0,0,0-0.1
				c0-0.1,0,0,0,0c0,0,0,0,0.1-0.1c0-0.1,0,0,0.1-0.1c0.1-0.1,0.1,0,0.1-0.1c0-0.1,0-0.1,0.1-0.2c0-0.1,0,0,0.1-0.1c0,0,0.1,0,0.1,0
				c0,0,0,0.1,0.1,0c0,0,0,0,0.1,0c0,0,0,0.1,0.1,0.1c0,0,0.1,0.1,0.1,0.1c0,0,0.1,0.1,0.1,0.1c0,0,0.1,0.1,0.1,0c0,0,0.1,0,0.1,0
				c0,0,0.1,0,0.1,0.1c0,0,0.1,0,0.2,0.1c0,0,0.1,0,0.1,0.1c0.1,0.1,0.1,0,0.1,0.2c0,0,0,0,0,0.1c0,0.1,0,0.1,0.1,0.1
				c0.1,0,0,0,0-0.1c0.1-0.1,0,0,0.1,0c0,0,0.1,0,0.2-0.1c0.1-0.1,0,0,0.1-0.1c0.1-0.1,0.1,0,0.1,0c0.1,0,0.1,0.1,0.1,0.1
				c0,0,0,0,0.1,0c0.1,0,0.1,0.1,0.2,0.1c0.1,0,0.1,0.1,0.1,0c0.1,0,0.1,0,0.1,0c0.1,0,0.1,0,0.2,0c0.1,0,0.1,0,0.2,0
				c0,0,0.1,0,0.1,0.1c0,0,0.1,0,0.2,0c0,0,0.1,0.1,0.2,0.1c0,0,0.1,0.1,0.1,0.1c0,0,0.1,0.1,0.2,0.1c0.1,0,0.1,0.1,0.1,0.1
				c0,0,0.1,0,0.2,0.1c0.1,0,0.1,0.1,0.1,0.2c0,0.1,0.1,0.1,0.1,0.1c0.1,0.1,0.1,0,0.1,0s0.1,0,0.2,0c0.1,0,0,0,0.1,0
				c0.1,0,0.1,0,0.2,0c0.1,0,0,0,0.2,0.3c0,0,0,0.1,0.1,0.1v0c0,0,0,0,0,0c0,0,0,0,0,0c0,0,0,0.1,0,0.1c0,0.1,0,0.1,0,0.2
				c0,0,0,0.1,0,0.2c0,0.1,0,0.1,0,0.1c0,0,0,0.1,0,0.2c0,0,0,0.1,0,0.2c0,0,0,0.1,0,0.1c0,0,0,0-0.1,0.1c0,0.1,0,0.1-0.1,0.1
				c0,0.1-0.1,0-0.1,0.1c-0.1,0.1-0.3,0.3-0.3,0.4c-0.1,0.1-0.1,0.1-0.1,0.1c0,0,0,0.1,0,0.1c0,0,0,0.1,0,0.1s0,0.1,0,0.1
				c0,0-0.1,0.1-0.1,0.2c0,0.1-0.1,0.1-0.1,0.1c-0.1,0,0,0-0.1,0c-0.1,0,0,0-0.1,0c-0.1,0-0.1,0-0.1,0s0,0,0.1,0.1c0.1,0,0,0-0.1,0
				c-0.1,0,0,0-0.1,0c-0.1,0,0,0,0,0.1c0,0.1,0,0.1,0,0.1c0,0,0,0.1,0,0.2c0,0.1,0,0.1,0,0.2c0,0.1,0,0.2,0,0.2
				c0,0.1,0.1,0.2,0.1,0.2c0,0.1,0,0.1,0,0.2c0,0,0,0.1,0,0.1c0,0.1,0,0.2,0,0.2c0,0,0,0.1,0,0.2c0,0,0,0.1-0.1,0.1
				c-0.1,0,0,0.1,0,0.1c0,0,0,0,0,0.1c0,0.1,0,0,0,0.3c0,0.3,0,0.1,0,0.1c0,0,0,0.1-0.1,0.2c-0.1,0.1-0.1,0.1-0.1,0.2
				c0,0.1-0.1,0.1-0.1,0.2c0,0.1,0,0.2,0,0.2c0,0,0,0.1-0.1,0.2c-0.1,0.1,0,0-0.1,0.1c0,0,0,0.1,0,0.1c0,0.1-0.1,0.1-0.1,0.1
				c0,0-0.1,0-0.1,0c0,0-0.1,0-0.1,0.1c-0.1,0-0.1,0-0.1,0c0,0-0.1,0-0.1,0c0,0-0.1,0-0.1,0c0,0-0.1,0-0.2,0c-0.1,0-0.1,0-0.1,0
				c0-0.1,0,0,0,0.1c0,0.1,0,0-0.1,0.1c-0.1,0.1-0.1,0-0.2,0.1c-0.1,0.1,0.1,0.1,0.1,0.1s-0.1,0-0.2,0c-0.1,0,0,0-0.1,0
				c0,0-0.1-0.1-0.1-0.1c0,0-0.1,0-0.1,0c0,0-0.1,0-0.1,0c0,0,0,0-0.1,0.1c0,0-0.1,0.1-0.2,0.2c-0.1,0.1-0.1,0.1-0.1,0.1
				c0,0,0,0,0,0c0,0,0,0-0.1,0c0,0-0.1,0-0.2,0c-0.1,0,0,0.1,0.1,0.2c0,0.1,0,0-0.1,0.1c0,0,0,0.1,0.1,0.1c0,0.1,0,0.1,0,0.1
				c0,0,0.1,0.1,0.1,0.1s0,0.1,0,0.2c0,0,0,0.2,0,0.2c0,0,0,0.1,0,0.2c0,0,0,0,0,0.1c0,0.1-0.1,0.3-0.1,0.3
				c-0.1,0.1-0.1,0.2-0.2,0.2c-0.1,0.1,0,0.1,0,0.2c0,0.1,0,0.1,0,0.1c0,0,0,0.1,0,0.1c0,0.1,0,0.1-0.1,0.2c0,0,0,0.1-0.1,0.1
				c0,0-0.1,0.1-0.1,0.1c-0.1,0-0.1,0.1-0.1,0.1s-0.1,0.1-0.2,0.1c0,0.1,0,0-0.1,0c0,0,0,0.1,0,0.1c0,0,0,0.1,0,0.2
				c0,0.1,0,0.1,0,0.1s-0.1,0.1-0.1,0.1c0,0-0.1,0.1-0.1,0.2c0,0.1,0,0.1-0.1,0.1c0,0,0,0.1-0.1,0.2c0,0.1-0.1,0.1-0.1,0.1
				c0,0-0.1,0.1-0.1,0.1s-0.1,0.1-0.3,0c0,0-0.1,0-0.1,0c-0.1,0,0,0-0.1,0c0,0-0.1,0-0.1,0c0,0,0,0-0.1,0c0,0-0.1,0-0.2,0
				c-0.1,0-0.1-0.1-0.1-0.1c0-0.1-0.1,0-0.2-0.1c-0.1,0,0,0-0.1,0c-0.1,0-0.1-0.1-0.2-0.1c0,0,0-0.1,0-0.2c0,0,0-0.2,0-0.2
				c0-0.1,0-0.1,0-0.1c0-0.1-0.1-0.2-0.1-0.2c0,0,0,0.1,0,0.1c0,0.1,0,0.1,0,0.1c0,0,0,0,0,0.1c0,0.1,0,0.1,0,0.1c0,0,0,0.1,0,0.2
				c0,0.1,0,0,0,0.1c0,0.1,0,0.1,0.1,0.1c0,0,0.1,0.1,0.1,0.1c0,0,0.2,0.1,0.3,0.1c0.1,0,0.1,0.1,0.1,0.1c0,0,0,0.1,0.1,0.2
				c0,0,0,0.1,0,0.2c0,0.1,0,0,0,0c0,0,0,0.1,0.1,0.1c0.1,0,0,0,0.1,0.1c0,0.1,0,0,0,0.1c0,0.1,0,0.1,0,0.1c0,0,0,0.1,0,0.1
				c0,0,0,0.1,0,0.1s0,0.1-0.1,0.2c0,0,0,0-0.1,0.1c0,0,0,0,0,0.1c0,0-0.1,0.1-0.1,0.1c0,0-0.1,0.1-0.1,0.1c0,0-0.1,0-0.1,0
				s-0.1,0-0.1,0c0,0-0.4,0.1-0.5,0.1c-0.1,0-0.2,0-0.2,0s0,0-0.2,0c-0.1,0,0,0-0.1,0c-0.1,0-0.1,0-0.2,0c0,0,0,0.1,0.1,0.2
				c0.1,0.1,0,0.1,0,0.1c0,0,0,0.1,0,0.2c0,0-0.1,0.1-0.1,0.1c0,0,0,0.1,0.2,0.1c0.1,0.1,0,0.1-0.1,0.1c0,0-0.1,0.1-0.1,0.1
				c0,0-0.1,0-0.1,0c0,0-0.1,0-0.2,0c-0.1,0-0.1-0.1-0.1-0.1c0-0.1-0.1,0-0.2-0.1c-0.1,0-0.1,0-0.1,0c0,0.1,0.1,0.1,0.1,0.2
				c0,0.1,0,0.1,0,0.1c0,0,0,0.1,0,0.2c0,0.1,0,0.1,0.1,0.1c0,0,0.1,0.1,0.2,0.1c0,0,0-0.1,0.1-0.1c0-0.1,0.1,0,0.2,0
				c0.1,0,0,0.1,0,0.3c0,0.2-0.1,0-0.1,0c-0.1,0,0-0.1-0.1-0.2c0,0,0,0-0.1,0c0,0-0.1,0,0,0c0,0,0.2,0.2,0.2,0.2s0,0.1-0.1,0.1
				c0,0,0,0.2,0,0.2c0,0,0,0.1,0,0.1c0,0,0,0.1,0.1,0.1c0,0,0,0.1,0,0.3c0,0.2-0.1,0-0.1,0c0,0-0.1,0.1-0.2,0.1
				c-0.1,0.1-0.1,0-0.1,0s-0.1,0.1-0.1,0.1c0,0,0,0,0,0.1c0,0,0,0.1,0,0.2c0,0,0,0.1,0,0.2c0,0.1,0.1,0.1,0.1,0.2
				c0,0.1,0.1,0.1,0.2,0.1c0,0,0.1,0,0.2,0c0,0,0.1,0,0.1,0c0,0,0,0.1,0.1,0.2c0,0.1,0,0.1,0,0.1c0,0-0.1,0.1,0,0.1
				c0.1,0,0.1,0,0.1,0.1c0,0,0,0.1,0,0.1c0,0-0.1,0.1-0.1,0.2c-0.1,0.1-0.1,0.1-0.2,0.1c0,0-0.1,0-0.1,0.1c0,0.1,0,0.3-0.1,0.3
				c0,0,0.1,0.2,0.1,0.2c0,0-0.1,0-0.1,0c-0.1,0-0.1,0-0.1,0.1c-0.1,0.1,0,0.2-0.1,0.1c0,0,0,0.1,0,0.1c0,0,0,0.2,0.1,0.2
				c0,0,0.1,0.1,0.1,0.2c0.1,0.1,0.2,0.2,0.2,0.2c0.1,0,0,0.1,0,0.1c0,0-0.1,0-0.2-0.1c-0.1,0-0.1-0.1-0.2,0c0,0,0,0,0,0
				c0,0,0,0,0,0c0,0,0.1,0.1,0.1,0.1c0.1,0,0.1,0.1,0.2,0.1c0,0,0,0,0.1,0c0.1,0,0.1,0.1,0.1,0.1c0,0,0,0.1,0,0.1
				c0,0.1,0,0.1,0.1,0.1c0,0,0.2,0.2,0.2,0.2c0,0,0.1,0.1,0.1,0c0,0,0.1,0.1,0.1,0.1c0,0.1,0,0,0.1,0.1c0.1,0,0.1,0.1,0.1,0.1
				s0.1,0.1,0.2,0c0.1,0,0.2,0.1,0.3,0.1c0.1,0,0,0.1,0,0.1c0,0,0,0,0,0c0,0-0.1,0.1-0.1,0.1c0,0-0.2,0-0.1,0c0,0-0.1,0-0.1,0
				s-0.1,0-0.1,0c0,0-0.1,0-0.1,0c0,0-0.1,0-0.2-0.1c0,0-0.1,0-0.2,0c0,0,0,0-0.2,0c0,0,0,0,0,0c-0.2,0,0,0-0.1,0c0,0-0.1,0-0.2,0
				c-0.1,0-0.1-0.1-0.1-0.1s-0.1,0-0.1,0c0,0-0.1,0-0.1,0c0,0-0.2-0.1-0.2-0.1c0,0-0.1-0.1,0-0.1c0,0,0.1,0,0.1-0.1c0,0,0.2,0,0.2,0
				s0.1,0,0.1,0c0.1,0,0,0,0-0.1c0,0-0.2-0.1-0.2-0.1c0-0.1,0-0.1-0.1-0.2c0-0.1,0.1,0,0.1,0s0-0.1,0-0.1c0,0-0.1,0-0.1,0
				c0,0-0.1,0-0.2,0c0,0,0-0.1,0.1-0.2c0.1,0,0-0.1,0-0.1s0,0,0,0c0,0-0.1,0-0.2,0c-0.1,0,0,0.1,0,0.1c0,0,0,0-0.1,0.1
				c0,0,0,0-0.1,0c0,0-0.1,0.1,0,0.2c0,0.1,0.1,0.1,0.1,0.2c0,0,0,0.1-0.1,0.1c0,0-0.1,0-0.2-0.1c-0.1,0,0,0-0.1-0.1
				c0-0.1,0,0-0.1-0.1c0-0.1,0,0,0.1-0.1c0-0.1,0.1,0,0.2,0c0.1,0-0.1-0.1-0.1-0.1c0,0,0,0-0.1-0.1c0-0.1-0.1,0-0.1-0.1
				c0,0-0.1,0-0.2-0.1c-0.1-0.1-0.1,0.1-0.1,0c0-0.1,0,0-0.1-0.1c0-0.1-0.1,0-0.1-0.1c0,0,0.1,0,0.1-0.1c0-0.1,0-0.1,0-0.2
				c0,0,0,0-0.1,0c0,0-0.1,0-0.1-0.1c0,0-0.1,0-0.1,0c0,0,0,0,0,0.1c0,0.1-0.1,0-0.1,0c0,0-0.1,0-0.1-0.1c0-0.1,0,0,0-0.1
				c0-0.1-0.1-0.1-0.2-0.2c-0.1-0.1,0,0-0.1,0c-0.1,0-0.1,0-0.2-0.1c-0.1-0.1-0.1,0,0-0.1c0,0,0.1,0,0.1-0.1c0,0,0-0.1,0-0.1
				c0,0-0.1-0.1-0.2-0.1c0,0,0-0.1,0-0.1c0-0.1,0.1,0,0.1-0.1c0,0-0.1-0.1-0.1-0.1s0-0.1,0-0.2c0-0.1-0.1-0.1-0.2-0.2
				c0-0.1-0.1-0.1-0.1-0.1c0-0.1,0.1-0.1,0.1-0.2c0,0,0,0,0-0.1c0-0.1,0.1,0,0.1,0s0.1,0,0.2,0c0,0-0.1-0.1-0.2-0.1
				c-0.1-0.1,0,0-0.1,0c-0.1,0,0,0,0-0.1c0,0-0.1,0-0.2,0c-0.1-0.1-0.1-0.1-0.1-0.1c0-0.1,0.1,0,0.1-0.1c0-0.1,0,0,0-0.1
				c0-0.1,0,0,0-0.1c0-0.1-0.1,0.1-0.1,0.1c0,0,0,0,0-0.1c0,0-0.1,0-0.1,0s-0.1,0.1-0.1,0.1c0,0-0.1-0.1-0.2-0.1
				c-0.1-0.1,0.1,0,0.1-0.1c0.1,0,0.1,0,0.1-0.1c0,0,0,0-0.1-0.1c0,0,0-0.1,0.1-0.1c0,0,0.1,0.1,0.1,0.1c-0.1,0,0,0.1,0.1,0.1
				c0.1,0,0,0.1,0,0.1c0,0,0.1,0,0.1,0s0,0,0-0.1c0,0,0-0.1,0-0.1c0-0.1-0.1-0.1-0.1-0.1c0,0,0,0,0-0.1c0-0.1,0.1,0,0.1,0.1
				c0,0-0.1-0.1-0.1-0.1c0,0,0,0,0-0.2c0-0.1,0.1,0,0.1,0c0,0,0-0.1-0.1-0.2c0,0-0.1,0-0.1-0.1c0-0.1,0,0,0-0.1c0,0,0-0.1,0-0.1
				c0,0,0,0,0-0.2c0-0.2,0,0,0,0c0,0,0,0,0-0.1c0-0.1,0-0.1,0-0.1c0,0,0.1,0,0-0.1c0,0,0,0,0-0.1c0-0.1,0,0,0-0.1c0-0.1,0,0-0.1-0.1
				c0-0.1,0,0,0.1-0.1c0-0.1,0-0.1-0.1-0.1c-0.1,0-0.1,0-0.1,0c0,0,0,0-0.1,0c0,0-0.1,0-0.1-0.1c0,0-0.1-0.1-0.1-0.1
				c0,0-0.1-0.1-0.1-0.2c0-0.1,0,0,0-0.1c0-0.1,0-0.1,0-0.1c0-0.1,0-0.2,0-0.2s0,0,0-0.1c0-0.1,0,0,0-0.1c0-0.1,0-0.1,0-0.1
				c0,0,0-0.1,0-0.1s0-0.1-0.1-0.2c0,0,0-0.1-0.1-0.2c-0.1-0.1,0,0-0.1-0.1c-0.1-0.1,0,0-0.1-0.2c0-0.1-0.1-0.1,0-0.3
				c0-0.1,0-0.1,0-0.1c0-0.1,0,0,0.1-0.1c0-0.1,0-0.1,0-0.2c0-0.1,0-0.1,0-0.2c0,0,0-0.1,0.1-0.2c0-0.1,0-0.1,0-0.2
				c0-0.1-0.1-0.1-0.1-0.2c0-0.1,0,0,0-0.1c0-0.1,0.1-0.1,0.1-0.2c0-0.1,0,0,0-0.1c0,0,0-0.1,0-0.2c0-0.1,0-0.1,0-0.1
				c0-0.1,0-0.1,0-0.2c0-0.1-0.1-0.1-0.1-0.2c0-0.1,0-0.2-0.1-0.2c0-0.1,0-0.2-0.1-0.4c0,0,0,0,0-0.1c0,0,0-0.1,0-0.2
				c0-0.1,0-0.1-0.1-0.1c0-0.1-0.1-0.1-0.1-0.3c0,0,0,0,0,0c0,0,0,0,0,0c0-0.1,0,0,0-0.1c0-0.1,0,0,0-0.2c0-0.1,0,0,0-0.1
				c0-0.1,0-0.1,0-0.2c0-0.1,0,0,0-0.1c0-0.1,0-0.1,0-0.2c0-0.1,0-0.1-0.1-0.2c0-0.1,0-0.1,0-0.2c0-0.1,0-0.5-0.1-0.7
				c0,0,0-0.1-0.1-0.2c0-0.1,0,0,0-0.2c0-0.2,0,0,0-0.1c0-0.1,0,0,0-0.2c0,0,0-0.1,0-0.1c0-0.1,0-0.1-0.1-0.2c0-0.1,0,0-0.1-0.1
				c0-0.1,0,0,0-0.1c0-0.1,0-0.1,0-0.1c0-0.1,0-0.1,0-0.1c0,0,0-0.1-0.1-0.1c0,0,0-0.1-0.1-0.2c0-0.1,0-0.1,0-0.1c0,0,0,0-0.1-0.1
				c0,0,0,0-0.1-0.1c-0.1-0.1,0,0-0.1-0.1c0,0-0.1-0.1-0.2-0.2c0,0-0.1-0.1-0.1-0.2c-0.1-0.1-0.1-0.1-0.2-0.1c0,0-0.1,0-0.1,0
				c0,0-0.1,0-0.1,0c0,0-0.1-0.1-0.1-0.1c0,0-0.1,0-0.1,0c-0.1,0-0.1-0.1-0.1-0.1c-0.1,0-0.3-0.2-0.3-0.2c0,0-0.1,0-0.2-0.1
				c0,0-0.1,0-0.1-0.1c0,0-0.1-0.1-0.1-0.1c0,0-0.1,0-0.1-0.1c0-0.1,0,0-0.1-0.1c-0.1-0.1,0-0.1,0-0.1c-0.1,0-0.1-0.1-0.2-0.1
				c0,0-0.1,0-0.1-0.1c0,0,0,0,0-0.1c0,0,0-0.1,0-0.1c0-0.1,0,0,0-0.1c0,0,0-0.1-0.1-0.1c0-0.1-0.1,0-0.1-0.1
				c-0.1-0.1,0-0.1-0.1-0.1c-0.1-0.1-0.1-0.1-0.1-0.1c0,0-0.1-0.1-0.1-0.1c0,0,0-0.1-0.1-0.1c0-0.1-0.1,0-0.1-0.1
				c0,0-0.1-0.1-0.1-0.2c0,0,0,0,0-0.1c0,0-0.1-0.1-0.1-0.2c0-0.1-0.1-0.1-0.1-0.2c0-0.1,0-0.1-0.1-0.1c0,0,0,0-0.1-0.1
				c0,0-0.1,0-0.1,0c0,0,0,0-0.1,0c0,0,0,0-0.1-0.1c0,0,0-0.1-0.1-0.1c0,0,0,0,0-0.1c0,0-0.1-0.1-0.1-0.2c0,0-0.1-0.1-0.1-0.1
				c0,0-0.1-0.1-0.1-0.1c0,0,0,0,0-0.1c0,0-0.1-0.1-0.1-0.1c0,0-0.1-0.1-0.1-0.1c0,0-0.1,0-0.1,0c0,0,0,0,0,0c0,0-0.1,0-0.2-0.1
				c-0.1-0.1-0.1-0.1-0.1-0.1c0,0,0,0,0-0.1c0,0,0,0,0,0c0,0,0,0,0-0.1c0,0,0,0,0-0.1c0-0.1,0,0-0.1-0.1c0,0,0,0-0.1-0.1
				c0-0.1,0,0,0-0.1c0-0.1,0,0,0-0.1c0,0,0-0.1,0-0.1c0,0,0-0.1,0-0.1c0,0,0,0,0.1-0.1c0.1-0.1,0,0,0.1,0c0,0,0.1,0,0.1,0
				c0,0,0,0,0.1,0h0c0,0,0.1-0.1,0.1-0.1c0-0.1,0-0.1,0-0.1s0-0.1,0-0.2c0,0,0,0.1,0,0.1c0,0,0,0.1,0,0.1c0,0-0.1,0-0.1,0
				s0,0-0.1-0.1c0,0-0.1,0-0.1-0.1c0,0,0,0,0-0.1c0,0,0,0,0,0c0,0-0.1,0-0.1-0.1c0,0,0,0,0,0c0,0,0,0,0-0.1c0-0.1,0,0,0-0.1
				c0,0,0-0.1,0.1-0.1c0,0,0-0.1,0-0.2c0,0,0,0,0-0.1c0,0,0,0,0-0.1c0,0,0,0,0.1-0.1c0.1-0.1,0,0,0,0c0,0,0,0,0,0c0,0,0,0,0-0.1
				c0,0,0,0,0-0.1c0,0,0,0,0,0c0,0,0,0,0,0c0,0,0.1,0,0.1,0c0,0,0,0,0,0c0,0,0.1,0,0.1-0.1c0,0,0.1,0,0.1,0c0,0,0.1,0,0.1,0
				c0,0,0-0.1,0-0.1c0,0,0,0,0,0c0,0,0,0,0-0.1c0,0,0-0.1,0-0.1c0,0,0,0,0,0c0,0,0-0.1,0-0.1c0,0,0.1-0.1,0.1-0.1c0,0,0,0,0.1,0
				c0,0,0.1,0,0.1,0c0.1,0,0,0,0,0c0,0,0,0,0,0c0,0,0,0,0-0.1c0,0,0,0,0-0.1c0,0,0,0,0-0.1c0,0,0,0,0.1-0.1c0-0.1,0,0,0,0
				c0,0-0.1-0.1-0.1-0.2c0,0,0-0.1,0-0.1c0,0,0-0.1,0-0.1c0,0,0-0.1-0.1-0.1c0-0.1,0,0,0-0.1c0-0.1,0-0.1,0-0.1c0,0,0-0.1,0-0.1
				c0,0,0-0.1,0-0.1c0,0,0-0.1,0-0.1c0,0-0.1,0-0.1-0.1c0,0,0,0,0-0.1c0,0,0,0,0,0s0,0,0,0c0,0,0,0,0,0c0,0-0.1,0.1-0.1,0
				c-0.1,0-0.1-0.1-0.1-0.2c0,0-0.1,0-0.1,0s0,0-0.1,0c0,0,0,0.1,0,0.1c0,0,0,0,0,0.1c0,0.1-0.1,0.1-0.1,0.1c0,0-0.2,0.1-0.2,0.1
				c0,0,0,0.1,0.1,0.2c0,0,0.1,0.1,0.1,0.1c0,0,0,0.1-0.1,0.2c0,0-0.1,0-0.1,0c0,0-0.1,0-0.1,0c0,0-0.2,0-0.2,0c0,0,0,0,0-0.1
				c0,0-0.1-0.1-0.1-0.2c0,0-0.1,0-0.1,0c0,0-0.1,0-0.1,0c0,0-0.1,0-0.1,0c0,0,0-0.1,0-0.1s-0.1,0-0.1,0c0,0-0.1-0.1-0.1-0.1
				c0,0-0.1,0-0.2-0.1c-0.1,0-0.2,0-0.4-0.1c0,0-0.1-0.1-0.2-0.1c-0.1,0-0.1,0-0.1,0c0,0,0,0,0,0.1c0,0-0.1,0-0.1,0
				c0,0,0-0.1-0.1-0.1c0,0-0.1,0-0.1-0.1c0,0,0,0-0.1-0.1c0,0-0.1,0,0-0.1c0,0,0,0,0-0.1c0-0.1,0,0,0-0.1c0,0-0.1-0.1-0.1-0.1
				c0,0-0.1,0-0.1-0.1c0,0-0.1,0-0.1-0.1c0,0-0.1,0-0.1,0c0,0-0.1-0.1-0.1-0.1c0,0-0.1,0-0.1,0c0,0,0,0-0.1-0.1c0,0,0-0.1-0.1-0.1
				c0,0-0.2-0.1-0.1-0.1c0,0.1,0.1,0.1,0.1,0.1c0,0,0,0.1,0,0.1s0,0,0,0c0,0-0.1-0.1-0.1-0.1c0,0-0.2-0.1-0.2-0.1s0,0-0.1,0
				c0,0-0.1,0-0.1,0c0,0-0.1-0.1-0.1-0.1c0,0,0-0.1-0.1-0.1c0-0.1,0-0.1,0-0.1c0,0,0-0.2,0-0.3c0,0,0,0,0,0c0,0,0-0.1,0-0.1
				c0,0-0.1-0.1-0.1-0.1c0,0-0.1-0.1-0.1-0.1c0,0-0.1,0-0.2-0.1c-0.1-0.1-0.1-0.1-0.1-0.1c0,0-0.1-0.1-0.2-0.2
				c0-0.1-0.1-0.1-0.1-0.1c0,0-0.1-0.1-0.1-0.2c0,0-0.2-0.1-0.3-0.2c0,0,0,0-0.1-0.1c0,0,0,0,0-0.1c0,0,0-0.1,0-0.2
				c0-0.1-0.1,0-0.1,0c0,0-0.3,0-0.4,0c-0.1,0-0.3,0-0.3,0c0,0-0.2,0-0.2,0s-0.2,0-0.2-0.1c-0.1,0-0.1,0-0.2,0c0,0-0.2-0.1-0.3-0.1
				c-0.1-0.1-0.1,0-0.1-0.1c0,0,0,0,0,0c-0.1,0-0.2-0.1-0.2-0.1c-0.1,0-0.2,0-0.2,0c0,0-0.1,0-0.1,0s-0.6-0.2-0.7-0.2
				c0,0-0.1,0-0.1-0.1c0,0,0,0,0-0.1c0,0-0.1-0.1-0.1-0.2c0,0-0.1-0.1-0.2-0.2c-0.1-0.1-0.1,0-0.1,0c-0.1,0-0.1,0-0.1-0.1
				c0,0-0.1-0.1-0.1-0.1c0,0-0.1-0.1-0.2-0.1c0,0-0.3-0.2-0.3-0.2c0,0-0.1,0-0.3-0.1c0,0-0.2-0.1-0.3-0.1c-0.1,0-0.1,0-0.1,0
				c-0.1,0,0,0-0.1,0c0,0-0.1,0-0.1,0c0,0-0.1,0-0.2,0.1c-0.2,0.1-0.2,0.1-0.2,0.1c-0.1,0,0,0-0.1,0c0,0-0.2,0-0.2,0
				c0,0-0.1,0-0.2,0c0,0-0.2-0.1-0.2,0c0,0-0.2,0-0.2,0s-0.5-0.2-0.6-0.2c-0.1-0.1-0.1,0-0.2-0.1c0,0-0.1,0-0.1-0.1
				c-0.1,0-0.1,0-0.1-0.1c0,0-0.1,0-0.1,0s-0.1,0-0.2-0.1c0,0-0.1,0-0.2,0c-0.1,0-0.1,0-0.1,0c0,0-0.1,0-0.1-0.1c-0.1,0-0.1,0-0.2,0
				c0,0-0.1-0.1-0.1-0.1c0,0-0.1-0.1-0.2-0.1c-0.2,0-0.1-0.1-0.2-0.1c0,0-0.1,0-0.1,0s-0.2-0.1-0.2-0.1c0,0-0.1-0.1-0.1-0.1
				c0,0-0.2-0.1-0.2-0.1c0,0-0.2,0-0.2,0s-0.2-0.1-0.2-0.1c0,0-0.2,0-0.4,0c-0.1-0.1-0.1-0.1-0.2-0.1c-0.1,0-0.1,0-0.1,0
				c0,0-0.1,0-0.2-0.1c0,0-0.1,0-0.1-0.1c0,0-0.1,0-0.1-0.1c0,0-0.1-0.1-0.2-0.1c-0.1,0-0.1-0.1-0.1-0.1c0,0-0.1,0-0.2,0
				c0,0-0.1,0-0.1,0c0,0-0.1-0.1-0.1-0.1c0,0-0.1-0.1-0.2-0.1c0,0,0-0.1-0.1-0.2c0-0.1-0.1-0.2-0.2-0.2c0,0-0.1-0.1-0.1-0.2
				c0-0.1,0,0,0-0.1c0,0,0.1,0,0.1-0.1c0-0.1,0,0,0-0.1c0,0,0-0.1,0-0.2c0-0.1,0,0,0-0.1c0,0,0-0.1,0-0.1c0,0,0-0.1-0.1-0.1
				c0,0-0.1-0.1-0.1-0.1c0-0.1,0,0,0-0.1c0-0.1,0,0,0-0.1c0,0-0.1-0.1-0.1-0.2c0-0.1-0.1-0.1-0.1-0.1c0,0-0.1-0.1-0.1-0.1
				c0,0-0.3-0.2-0.3-0.2c0,0-0.1-0.2-0.1-0.2c0,0-0.1-0.1-0.3-0.2c-0.2-0.1-0.1-0.1-0.1-0.1c0-0.1-0.1,0-0.1-0.1
				c0-0.1-0.1,0-0.1-0.1c0,0-0.1,0-0.1,0c0,0-0.1,0-0.1-0.1c0,0-0.1-0.1-0.2-0.1c0,0-0.1-0.1-0.1-0.1c0,0,0,0,0-0.1
				c0-0.1,0-0.1,0-0.1c0,0,0-0.1-0.1-0.1c0,0-0.1,0-0.1,0c0,0-0.1,0-0.1,0c0,0-0.1-0.1-0.1-0.2c0,0-0.1,0-0.1,0s-0.1-0.1-0.2-0.1
				c0,0-0.1,0-0.1,0c0,0-0.1-0.1-0.1-0.1s-0.1-0.1-0.1-0.1c0,0,0,0,0-0.1c0,0,0-0.1,0.1-0.1c0-0.1,0-0.1,0-0.1c0,0-0.1,0-0.1,0
				s-0.1,0-0.2-0.1c0,0-0.1,0-0.1-0.1c0-0.1-0.1-0.1-0.1-0.1c0,0-0.1,0-0.1,0c0,0-0.1,0-0.1,0c0,0-0.1,0-0.1,0c0,0,0-0.2,0-0.2
				c0,0-0.1-0.1-0.1-0.1c0,0-0.1,0-0.1,0c0,0-0.1,0-0.2-0.1c-0.1,0,0.1,0-0.1-0.1c-0.1-0.1-0.1,0-0.1-0.1l0,0c0,0.3-0.1,0.5-0.1,0.8
				l0,0c0.1,0,0.1,0.1,0.1,0.2C7.7,32.9,7.7,33,7.7,33c0,0.1-0.1,0-0.1,0s0.2,0.2,0.2,0.2c0,0,0,0-0.2,0.1c-0.1,0.1,0,0,0.1,0.1
				c0.1,0,0.1,0.1,0.1,0.1c0.1,0,0,0.1,0,0.1S8,33.7,8,33.7c0,0,0.1,0.1,0.1,0.1c0,0,0,0.1,0,0.2c0,0,0,0,0,0.1c0,0,0,0.1,0.1,0.1
				c0,0.1,0.1,0.1,0.1,0.1c0,0,0.1,0.1,0.1,0.1c0,0,0.2,0,0.2,0c0,0,0.1,0,0.1,0.1c0,0.1,0,0,0.1,0.1c0,0.1,0,0,0,0.1
				c0,0.1,0,0.1,0.1,0.1c0,0,0.1,0.1,0.1,0.1c0,0,0.1,0.1,0.1,0.1C9,35,9,35,9,35c0,0-0.2,0.1-0.2,0.1c0,0-0.1,0-0.2,0
				c0,0,0,0-0.1-0.2c0-0.1,0,0-0.1-0.1c-0.1-0.1-0.1,0-0.1-0.1c0,0-0.1-0.1-0.1-0.1c0,0-0.1,0-0.2-0.1c0,0-0.1-0.1-0.1-0.1
				c0,0-0.2-0.1-0.3-0.2c-0.1-0.1-0.1-0.1-0.2-0.1c-0.1,0-0.1,0-0.2-0.1c-0.1,1-0.1,2.1-0.1,3.2c0,19.4,15.7,35.2,35.2,35.2
				c13.3,0,24.9-7.4,30.9-18.3c0,0,0,0,0,0c0,0,0-0.1,0-0.2c0-0.1,0-0.1,0-0.1c0,0,0-0.3-0.2-0.5c0,0,0,0,0,0
				c-0.2-0.1-0.3-0.5-0.4-0.5c-0.1,0-0.1,0-0.1-0.1c-0.1-0.1-0.1-0.2-0.2-0.3c-0.3-0.4-0.6-0.8-0.7-0.8c0,0-0.1-0.3-0.2-0.3
				c-0.1,0-0.2-0.3-0.3-0.4c0-0.1,0-0.3,0-0.4c0-0.1,0-0.4,0-0.4c0.1-0.1,0.2-0.1,0.2-0.3c0-0.2,0-0.3,0-0.4c0-0.2,0-0.2,0-0.3
				c0-0.1,0-0.2,0-0.2c0,0,0,0,0,0c0.1-0.1,0.2-0.3,0.1-0.3c0,0,0-0.4-0.1-0.4c-0.1,0-0.2-0.4-0.2-0.4c0,0-0.1-0.2-0.2-0.2
				c-0.1,0-0.2,0.1-0.2,0.1c0,0-0.1-0.1-0.2-0.2c0,0-0.1-0.1-0.1-0.1c0,0,0-0.1,0-0.1c0-0.1,0.1-0.2,0-0.2c-0.1,0-0.3,0.1-0.4,0.1
				c-0.1,0-0.2,0.1-0.3,0.1c-0.1,0-0.2,0-0.3,0c-0.1,0-0.6-0.1-0.6,0c0,0-0.1-0.1-0.2-0.1c-0.1,0-0.2-0.2-0.2-0.3c0-0.1,0-0.3,0-0.3
				c-0.1,0-0.1-0.3-0.2-0.2c-0.1,0-0.2-0.1-0.3-0.2c-0.1,0-0.1-0.2-0.3-0.2c-0.2-0.1-0.3,0-0.5,0c-0.1,0-0.2,0-0.2,0
				c0,0-0.1,0-0.1,0s0-0.2-0.2-0.1C66.7,46,66.3,46,66.3,46s0,0-0.1,0c0,0,0,0,0,0c-0.1,0-0.1,0-0.2,0.1c-0.1,0-0.2,0.1-0.3,0.1
				c-0.1,0-0.1,0-0.2,0.1c0,0,0,0,0,0c-0.1,0-0.1,0.1-0.2,0.1c-0.1,0-0.1,0-0.2,0c-0.2,0-0.2,0-0.2,0c0,0-0.1,0-0.2,0.1
				c-0.1,0.1-0.2,0.1-0.3,0.2c-0.1,0.1-0.3,0.2-0.3,0.2s-0.1,0.1-0.1,0c0-0.1,0-0.2-0.3-0.3c-0.1,0-0.2,0-0.3-0.1
				c-0.1,0-0.1,0-0.1,0c-0.1,0-0.1,0-0.3,0c-0.2,0-0.6,0-0.6,0c-0.1,0-0.2-0.1-0.4,0c-0.2,0.1-0.2,0-0.4,0.1
				c-0.1,0.1-0.3,0.1-0.3,0.1C61,47,61,46.9,60.9,47c-0.1,0.1-0.2,0.2-0.4,0.3c0,0,0,0,0,0c0,0-0.2,0-0.2,0c-0.1,0-0.3-0.1-0.3-0.1
				c0,0-0.3-0.1-0.3-0.1c0,0-0.2-0.1-0.2-0.2c0,0-0.2-0.1-0.2-0.1c0,0-0.2-0.1-0.2-0.1s-0.2,0-0.2-0.1c0-0.1-0.1-0.2-0.2-0.2
				c-0.1,0-0.2-0.2-0.3-0.3c-0.1-0.1-0.4-0.2-0.4-0.2s-0.2,0-0.3-0.1c0,0,0,0,0,0c-0.1-0.1-0.2-0.2-0.2-0.3c0,0-0.2-0.1-0.2-0.1
				c0,0,0-0.1-0.1-0.1c-0.1,0-0.2,0-0.2,0c0,0,0-0.1-0.1-0.1c0,0,0-0.1,0-0.2c0,0-0.1-0.3-0.2-0.3c0,0-0.1-0.1-0.2-0.2c0,0,0,0,0,0
				c0,0,0-0.1-0.1-0.2c-0.3-0.4-0.5-0.6-0.5-0.6s-0.1-0.1-0.2-0.1c-0.1,0-0.1-0.1-0.2-0.2c-0.1,0-0.1-0.2-0.1-0.2c0,0,0,0-0.1,0
				c-0.1-0.1-0.1-0.2-0.2-0.1c0,0-0.1-0.1-0.1-0.1c0,0,0-0.1,0-0.1c0-0.1,0-0.1,0-0.2c0,0-0.1-0.1-0.2-0.1c0,0-0.2-0.1-0.2,0
				c0,0.1-0.1,0-0.1,0c0,0-0.1,0-0.2-0.1c0,0,0-0.1,0-0.1c0,0-0.1,0-0.1,0s0-0.1-0.1-0.1c0,0,0,0,0,0c0,0,0-0.1,0-0.1
				c0-0.1,0-0.1,0-0.2c0,0-0.1-0.1,0-0.1c0-0.1,0-0.1,0.1-0.2c0.1-0.1,0.1-0.1,0.1-0.1c0,0,0-0.2,0-0.2s-0.2-0.2-0.2-0.2
				c-0.1,0-0.1-0.1-0.1-0.2c0,0-0.1-0.2-0.1-0.2c0,0,0-0.1,0-0.2c0.1,0,0.2-0.2,0.2-0.2c0,0,0-0.1,0-0.2c0.1,0,0.1-0.3,0.1-0.3
				s0-0.1,0-0.1c0,0,0-0.1,0-0.1c0,0,0-0.1,0-0.3c0-0.2,0.1-0.4,0.1-0.4s0.1-0.2,0.1-0.2c0,0-0.1-0.3-0.1-0.3c0-0.1-0.1-0.2-0.1-0.3
				c0,0,0-0.1-0.1-0.1c0,0-0.1-0.2-0.1-0.2s0-0.1,0-0.2c0.1-0.1,0.1-0.2,0.1-0.2c0,0-0.2-0.4-0.2-0.4c0,0-0.2-0.3-0.3-0.3
				c-0.1,0.1-0.1,0.1-0.1,0c0,0-0.1-0.1,0-0.3c0,0,0-0.1,0-0.1h0c0-0.1,0.1-0.3,0.1-0.3c0-0.1,0-0.1,0.1-0.2c0-0.1,0.1-0.1,0.2-0.2
				c0.1-0.1,0.2-0.4,0.3-0.5c0-0.1,0-0.2,0.1-0.3c0-0.1,0-0.1,0-0.2c0-0.1,0.1-0.2,0.1-0.2c0,0,0.1-0.1,0.1-0.1c0,0,0.1-0.2,0.1-0.2
				c0,0,0.2-0.2,0.2-0.2s0.1-0.2,0.1-0.3c0,0,0.1-0.2,0.1-0.2s0-0.2,0-0.2c0,0,0.2-0.2,0.2-0.2s0.2-0.1,0.2-0.1c0,0,0.2-0.2,0.2-0.2
				c0-0.1,0.1-0.1,0.1-0.2c0,0,0-0.3,0.1-0.3l0,0c0.1-0.1,0.2-0.2,0.2-0.2c0,0,0.7-0.2,0.7-0.2c0,0,0.2,0,0.2-0.1
				c0.1-0.1,0.1-0.1,0.2-0.1c0,0,0.1-0.1,0.1-0.1c0,0,0.1-0.1,0.1-0.1c0,0,0-0.1,0.1-0.1c0.1,0,0.1,0,0.2-0.1
				c0.1-0.1,0.1-0.1,0.1-0.2c0,0,0.1-0.1,0.1-0.2c0,0,0.1-0.2,0.1-0.2c0,0,0.1-0.1,0.1-0.1c0,0,0-0.3,0-0.3c0,0-0.1-0.1,0-0.2
				c0-0.1,0.2-0.8,0.2-0.8s0-0.1,0-0.2c0,0,0.1-0.2,0.2-0.2c0,0,0.1-0.2,0.2-0.2c0.1,0,0.1-0.1,0.2-0.2c0.1-0.1,0.2-0.2,0.2-0.2
				c0,0,0.1-0.1,0.2-0.1c0,0,0.3-0.1,0.3-0.1c0.1,0,0.2-0.1,0.3-0.1c0,0,0.1-0.2,0.2-0.2c0,0,0.1-0.1,0.2-0.1c0,0,0.1-0.1,0.1-0.2
				c0,0,0.1-0.1,0.1-0.2c0,0,0.1-0.1,0.1-0.1s0.2-0.3,0.2-0.4c0-0.1,0-0.1,0-0.2c0.1-0.1,0.1-0.2,0.1-0.2c0,0,0.1-0.1,0.1-0.1
				c0,0,0.1,0,0.1,0.1c0,0.1,0.1,0.1,0.1,0.1c0,0.1,0.3,0.1,0.3,0.2c0,0.1,0.3,0,0.3,0.1c0,0,0.2,0.1,0.2,0.1c0.1,0,0.3,0,0.3,0
				c0,0,0.1,0,0.1-0.1c0,0,0.1,0,0.1,0c0,0,0.1-0.1,0.2,0c0.1,0.1,0,0,0.1,0.1c0,0.1,0.2,0,0.2,0c0,0,0.1,0,0.1,0.1c0,0.1,0,0,0.1,0
				c0.1,0,0.2,0,0.2,0c0,0,0.1,0,0.1,0c0.1,0,0.1-0.1,0.2-0.1c0,0,0.1-0.1,0.1-0.2c0,0,0.1-0.1,0.1-0.1c0,0,0.1-0.1,0.1-0.1
				c0,0,0.5-0.2,0.5-0.2s0,0.1,0,0.1c0,0,0.2-0.1,0.3-0.2c0,0,0.1-0.1,0.2-0.1c0,0,0.1-0.1,0.1-0.1c0.1,0,0.1-0.1,0.3-0.1
				c0.1,0,0.6,0,0.7,0c0,0,0.2-0.1,0.3-0.1c0.1,0,0.2-0.1,0.2-0.1c0,0,0,0,0.1,0c0.1,0,0.3,0,0.3,0c0,0,0.3,0,0.3,0
				c0.2,0,0.4,0,0.6,0c0,0,0.1,0.1,0.1,0.1c0,0,0.1,0.1,0.1,0.1c0.1,0,0.4-0.2,0.4-0.2s0.1-0.1,0.1-0.1c0,0,0.1-0.1,0.2-0.1
				c0,0,0.2,0,0.2,0c0,0,0.1,0,0.1,0c0,0,0.2-0.1,0.2,0c0,0,0.1-0.1,0.1,0c0,0,0.1-0.1,0.1,0c0.1,0.1,0.1,0.1,0.2,0.1
				c0,0,0.2,0,0.2,0c0,0,0,0,0.1,0c0.1,0,0.5-0.2,0.5-0.2s0.1-0.1,0.1-0.1c0,0,0.2-0.1,0.2-0.1c0,0,0.1-0.1,0.2,0
				c0.1,0.1,0.2,0.1,0.2,0.1c0,0.1,0,0.2,0,0.2c0,0.1-0.1,0.1,0,0.1c0.1,0,0.3-0.2,0.3-0.2c0,0,0.1,0.1,0.1,0.1
				c0,0.2-0.1,0.2-0.2,0.3c0,0.1-0.1,0.1-0.1,0.2c0,0.1-0.1,0.1-0.1,0.1c0,0.1,0.1,0.1,0.1,0.2c0.1,0.1,0.2,0.4,0.2,0.4
				c0,0,0,0.1,0,0.2c0,0.1,0,0.1,0,0.1c0,0.1-0.1,0.2-0.1,0.2c-0.1,0.1-0.2,0.1-0.2,0.1c0,0-0.2,0.1-0.2,0.1c0,0-0.1,0.1-0.1,0.1
				c0,0.1-0.1,0-0.1,0.1c0,0.1,0.1,0.1,0.1,0.2c0.1,0.1,0.1,0.1,0.2,0.1c0.1,0,0.1-0.1,0.1-0.1s0.1,0,0.2,0c0,0,0.1,0.1,0.1,0.2
				c0,0,0.1,0.1,0.2,0.2c0,0,0,0,0.1,0.1c0.1,0,0.1,0.1,0.2,0.1c0.1,0,0.1,0,0.2,0.1c0.1,0.1,0.2,0.1,0.2,0.1s0,0,0.1,0
				c0.1,0,0.2-0.1,0.2,0c0,0,0.4,0,0.4,0c0.1,0,0.3,0.1,0.4,0.1c0,0,0.4,0.3,0.4,0.3c0.1,0,0.2,0,0.2,0c0.1,0,0.1,0.1,0.1,0.1
				c0,0,0,0,0.1,0.2c0,0.1,0.1,0.2,0.2,0.3c0,0.1,0,0.2,0,0.2c0.1,0,0.2,0,0.2,0c0,0.1,0,0.1,0.1,0.1c0.1,0,0.3-0.1,0.3,0
				c0,0,0.5,0.1,0.5,0.1s0.2,0,0.2,0c0,0,0.2,0,0.3,0.1c0.1,0.1,0.2,0.1,0.2,0.1c0,0,0.1,0.1,0.1,0.1C76.3,27.9,75.7,26,74.9,24.2
				C75,24.2,74.9,24.2,74.9,24.2z M29.4,5.3c-0.1,0.1-0.2,0.2-0.4,0.3c-0.2,0.1-0.2,0.1-0.4,0c-0.2-0.1-0.2-0.1-0.2-0.2
				c0-0.1,0.2-0.2,0.3-0.3C28.8,5,29,5.1,29,5c0,0,0.3-0.1,0.5-0.1c0.2-0.1,0.1,0,0.2,0.1C29.8,5.2,29.6,5.1,29.4,5.3z M31.1,5.7
				C31,5.8,30.9,6,30.8,6.1c-0.1,0.2-0.1,0-0.2-0.1c-0.1-0.1-0.1-0.1-0.1-0.3c0-0.2,0.1-0.2,0.2-0.3c0.2-0.1,0.3-0.1,0.4-0.1
				C31.3,5.4,31.1,5.5,31.1,5.7z M32.4,4.5c-0.1,0.1,0,0-0.1,0c-0.1,0-0.1,0-0.3-0.1c-0.2,0-0.1-0.1,0-0.2c0.1,0,0.2-0.1,0.3-0.1
				c0.1,0,0.1,0,0.2,0.1C32.5,4.3,32.5,4.4,32.4,4.5z M33,4.3c-0.1,0.1-0.3-0.1-0.3-0.2c0,0,0.1-0.1,0.2-0.1C33,4,33,4,33.1,4.2
				C33.2,4.3,33.1,4.3,33,4.3z M38.6,18.7c-0.1,0-0.1-0.1-0.1-0.2c0-0.1,0.1-0.2,0.2-0.2c0,0,0.1,0.1,0,0.1c0,0.1,0,0.1,0,0.1
				c0,0.1,0.1,0.2,0.1,0.2C38.8,18.9,38.7,18.8,38.6,18.7z M32.5,35.7c0.1,0,0.1,0,0.2,0c0.1,0.1,0,0.1,0,0.1S32.6,35.8,32.5,35.7
				C32.5,35.8,32.5,35.7,32.5,35.7z M32.1,36.5c0.1,0,0.5,0,0.4,0.1c-0.1,0.1,0,0-0.1,0.1c0,0.1-0.2,0.1-0.2,0c-0.1,0-0.1,0-0.2-0.1
				C32,36.6,32.1,36.5,32.1,36.5z M31.7,35.5c0.3-0.1,0.2,0.2,0.2,0.2s0,0.1-0.1,0.2c-0.1,0.1-0.1,0,0-0.1c0-0.1,0.1-0.1,0.1-0.2
				C31.8,35.6,31.6,35.5,31.7,35.5z M31.2,35c0.1,0,0,0.1,0.1,0.1c0,0.1,0,0.1,0,0.2c0,0-0.1,0-0.1-0.1c-0.1-0.1,0-0.1-0.1-0.1
				c-0.1,0,0-0.1,0-0.1C31,34.9,31.1,35,31.2,35z M30.8,34.2c0.1,0,0.1,0.1,0.2,0.1c0.1,0,0,0,0,0.1c0,0.1,0,0.2-0.1,0.2
				c-0.1,0,0,0,0-0.1c0-0.1,0-0.1-0.1-0.1C30.7,34.3,30.7,34.3,30.8,34.2z M30.6,35c0,0-0.1,0-0.1,0c-0.1,0,0,0,0-0.1
				C30.5,34.9,30.6,34.9,30.6,35z M30.3,33.7c0.1,0,0.1,0.1,0.1,0.1c0,0.1,0.1,0.1,0.1,0.2c0,0.1,0,0.1-0.1,0
				c-0.1,0-0.1-0.1-0.1-0.2c0-0.1-0.2-0.1-0.2-0.1C30.1,33.7,30.2,33.7,30.3,33.7z M29.5,32.9c0.2-0.1,0.2,0,0.3,0c0,0.1,0,0,0,0.1
				c0,0.1,0,0.1,0,0.2c0,0.1-0.1,0.1-0.1,0.2c0,0.1-0.1-0.1,0-0.2c0-0.1,0-0.1,0-0.2C29.7,33,29.4,32.9,29.5,32.9z M29.5,34.6
				c0.1,0,0,0.1-0.1,0.2c-0.1,0.1-0.1-0.1-0.1-0.2C29.3,34.7,29.5,34.6,29.5,34.6z M29.4,34.2c0,0.1,0,0.1,0,0.3
				c-0.1,0.2-0.1,0-0.1,0c-0.1-0.1,0-0.1-0.1-0.1c-0.1,0,0-0.1,0-0.2c0-0.1,0-0.2,0.1-0.3c0,0,0.1,0.1,0.1,0.1
				C29.3,33.9,29.4,34.1,29.4,34.2z M28.8,32.9c0.1-0.1,0.2,0,0.3-0.1c0.1,0,0.2,0.1,0.1,0.1c-0.1,0-0.1,0-0.2,0
				c-0.1,0.1-0.2,0.2-0.3,0.1C28.7,33,28.7,33,28.8,32.9z M26.2,36.3c-0.1,0-0.1,0-0.2-0.1C26,36.1,26,36,26.1,36
				c0.1,0,0.3,0.1,0.3,0.3C26.4,36.4,26.3,36.3,26.2,36.3z M30.6,38.6c-0.1,0-0.3,0-0.4,0.1c-0.1,0-0.1-0.1-0.2,0
				c-0.1,0.1-0.1,0.1-0.2,0.1c-0.1-0.1-0.2-0.1-0.3-0.1c-0.1-0.1-0.2-0.1-0.2-0.3c0,0,0.3-0.1,0.4-0.1c0.1,0,0.3,0,0.5,0.1
				c0.2,0.1,0.1-0.1,0.3,0.1C30.6,38.6,30.7,38.5,30.6,38.6z M31.5,37.4c0,0-0.2-0.1-0.2-0.1s-0.2,0.2-0.2,0.1
				c0-0.1-0.2-0.1-0.3-0.1c-0.1,0-0.4,0.1-0.5,0.1c-0.1,0-0.2,0-0.4,0c-0.2,0.1-0.4,0-0.3,0c0.1-0.1,0.2-0.1,0.2-0.2
				c0-0.1,0-0.2-0.1-0.2c-0.1,0-0.2,0-0.3,0c-0.1,0-0.3-0.2-0.4-0.3c0-0.1-0.1-0.3-0.2-0.3c-0.1,0-0.1-0.1-0.3-0.1
				c-0.2,0-0.1,0.2-0.3,0C28,36,28.1,35.9,27.9,36c-0.1,0-0.4,0-0.6,0c-0.2,0-0.3-0.1-0.4-0.1c-0.1,0-0.2,0.1-0.2-0.1
				c0-0.1,0-0.2,0-0.2c-0.1,0-0.2-0.1-0.3-0.1c-0.1,0.1-0.2,0-0.3,0.1c-0.1,0.1-0.2,0.1-0.3,0.2c-0.3,0.1-0.4-0.1-0.5,0
				c-0.1,0.1-0.2,0.2-0.2,0.2c0-0.1-0.2-0.3-0.1-0.4c0.1,0,0.1-0.1,0.2-0.2c0.2,0,0.2-0.1,0.3-0.2c0.1,0,0.1-0.1,0.2-0.1
				c0.1,0,0.2,0,0.2,0c0.1,0,0.2,0,0.3,0c0.1,0,0.1,0,0.2,0c0.1,0,0.1-0.1,0.3,0c0.2,0,0.3,0,0.4,0c0.1,0,0.3,0,0.4,0.1
				c0.1,0,0.3-0.1,0.4,0c0.2,0.1,0.1,0,0.2,0.1c0,0.1,0.1,0.2,0.1,0.2c0.1,0,0.2,0,0.2,0c0.1,0,0.2,0,0.2,0c0.1,0.2,0.2,0.1,0.3,0.2
				c0.1,0.1,0.2,0,0.3,0c0.1,0.1,0.1,0.1,0.3,0.2c0.2,0.1,0.2,0,0.3,0.1c0.1,0.1,0.2,0.1,0.2,0.2c0,0.1,0,0.1,0.1,0.1
				c0.2,0,0.2,0.1,0.3,0.1c0.1,0,0.2,0,0.2,0c0,0.1,0,0.2,0.1,0.2c0.1,0,0.1-0.1,0.3,0c0.1,0.1,0.2,0,0.3,0.1c0.1,0.1,0,0,0.1,0.2
				c0.1,0.1,0.1-0.1,0.1,0.1C31.8,37.4,31.5,37.4,31.5,37.4z M35.3,38.2c-0.1,0-0.3,0-0.4,0c-0.1,0-0.3,0-0.3,0c-0.1,0-0.2,0-0.3,0
				c0,0-0.3,0-0.3,0c0,0-0.2,0.1-0.2,0.2c0,0.1,0.1,0.3,0,0.2c-0.1-0.1-0.3-0.1-0.3-0.2c-0.1-0.1,0-0.1-0.1-0.1c-0.1,0-0.2,0-0.3,0
				c-0.1,0-0.2,0-0.3,0c-0.1,0-0.2,0-0.3,0c-0.1,0-0.1-0.1-0.2,0c-0.1,0.1-0.2,0.1-0.2,0.1c0,0-0.1-0.1-0.1-0.1
				c-0.1-0.1-0.2-0.2-0.1-0.2c0.1-0.1,0.4-0.2,0.5-0.1c0.1,0.1,0.3,0.1,0.4,0.1c0.1,0,0.1,0.1,0.2,0.1c0.1,0,0.3,0,0.2-0.1
				c0-0.1-0.2-0.1-0.2-0.2c-0.1-0.1-0.1-0.1-0.1-0.2c0-0.1,0-0.2-0.1-0.2c0,0-0.2,0-0.2-0.1c0-0.1-0.2-0.1-0.1-0.2
				c0.1-0.1,0.1-0.2,0.3-0.1c0.2,0.1,0.2,0.2,0.3,0.2c0.1,0,0.2,0,0.3,0c0.1,0,0.1,0,0.3,0c0.2,0,0.2-0.1,0.3,0c0.1,0,0.3-0.1,0.4,0
				c0.1,0.1,0.1,0.1,0.2,0.2c0,0,0,0,0,0c0,0-0.1-0.1,0.3,0.1c0.4,0.2,0.6,0.2,0.6,0.3C35.5,38.3,35.4,38.2,35.3,38.2z M37.3,38.6
				c-0.1,0-0.2,0-0.2,0c-0.1,0-0.1,0-0.2,0.1c-0.2,0.1-0.2,0-0.3,0c0,0-0.1-0.1-0.1-0.1c0-0.1-0.2-0.2,0-0.3c0.1,0,0.4-0.1,0.5,0
				c0.1,0,0.2,0,0.3,0c0.1,0,0.1,0,0.2,0.1C37.4,38.5,37.5,38.6,37.3,38.6z M38.2,39.2c0,0-0.1,0-0.2,0c-0.1,0,0-0.1,0.1-0.1
				C38,39.1,38.1,39.1,38.2,39.2C38.2,39.1,38.2,39.2,38.2,39.2z M39.2,38.9c0,0.1,0,0.1-0.1,0.1c-0.1,0-0.1-0.1,0-0.2
				C39.1,38.7,39.2,38.8,39.2,38.9C39.2,38.8,39.2,38.8,39.2,38.9z M39.4,39.5c-0.1,0-0.1-0.1,0-0.1c0.1,0,0.2,0.1,0.2,0.1
				C39.5,39.5,39.4,39.5,39.4,39.5z M39.8,18.8c0,0,0,0.1-0.1,0.2c-0.1,0.1-0.1,0.1-0.2,0.1c-0.1,0-0.1,0-0.2,0c0-0.1-0.1-0.1-0.2,0
				c0,0-0.2,0-0.3-0.1c-0.1-0.1,0-0.2,0-0.2c0,0,0.5,0,0.7,0C39.9,18.6,39.8,18.7,39.8,18.8z M40.2,16.7c-0.1,0-0.2,0-0.3,0
				c-0.1,0-0.3-0.1-0.3-0.1c-0.1,0-0.2-0.1-0.3-0.2c-0.1,0-0.2-0.1-0.4-0.2c-0.2,0-0.3-0.2-0.3-0.2c0.1-0.1,0.4-0.1,0.5-0.1
				c0.2,0,0.2,0,0.3,0c0.1,0,0.3,0.1,0.3,0.1c0.1,0,0.4,0.3,0.5,0.3c0.1,0,0,0.2,0,0.2S40.3,16.7,40.2,16.7z M40.7,19.1
				c-0.1,0-0.1,0.1-0.2,0c-0.1,0-0.2-0.1-0.2-0.1c0,0,0,0,0-0.1c0-0.1,0.3-0.4,0.4-0.5c0.1-0.1,0.1-0.2,0.2-0.1
				c0.1,0.2,0.2,0,0.1,0.3C41,18.8,40.8,19,40.7,19.1z M40.7,41.7c-0.1,0-0.1-0.2,0-0.3C40.9,41.4,40.8,41.7,40.7,41.7z M40.6,42.1
				C40.6,42.1,40.5,42,40.6,42.1C40.6,41.9,40.7,42,40.6,42.1z M40.7,41c0,0,0.1,0.1,0.1,0.2c0,0.1-0.1,0-0.2,0
				c-0.1,0-0.1-0.1-0.1-0.3C40.5,41,40.6,41,40.7,41z M40.1,40.2c0-0.1,0-0.2,0-0.2c0,0,0,0,0,0.1c0,0,0.1,0,0.1,0
				c0,0.1,0,0.1,0,0.2C40.2,40.2,40.2,40.2,40.1,40.2z M40.3,42.8c-0.1,0-0.1-0.2,0-0.2C40.4,42.7,40.4,42.8,40.3,42.8z M40.3,40.7
				c0,0,0-0.2,0-0.2v0c0,0,0.1,0,0.1,0c0.1,0,0.1,0.1,0.1,0.1c0,0,0,0.1-0.1,0.1C40.4,40.8,40.3,40.8,40.3,40.7z M40.7,44
				c-0.1,0-0.1,0-0.2,0c-0.1,0,0-0.1,0-0.2c0-0.1,0.1-0.2,0.2-0.3c0.1-0.1,0.2,0.1,0.2,0.3C40.9,44.1,40.8,44,40.7,44z M41.3,19.1
				c-0.1,0.1-0.2,0.1-0.3,0.2c-0.1,0.1-0.2,0.1-0.2,0c0-0.1,0-0.1,0-0.1c0-0.1,0-0.2,0.2-0.3c0.2,0,0.3-0.2,0.3,0
				C41.4,19.1,41.4,19.1,41.3,19.1z M46.1,17.9c0,0.1-0.1,0-0.1,0.1c0,0.1-0.1,0.1-0.1,0.2c0,0.1,0.1,0-0.1,0.1
				c-0.1,0.1-0.3,0.1-0.3,0.1c-0.1-0.1-0.1-0.2-0.1-0.3c-0.1,0-0.2,0.1-0.3,0.1c0-0.2,0-0.3,0-0.3c0-0.1,0-0.1,0-0.1
				c-0.2-0.1-0.3-0.1-0.3,0c0,0.1-0.1,0.1-0.2,0.2c-0.1,0-0.2,0.1-0.2,0.2c0,0.1-0.1,0.1-0.2,0.1c-0.1,0-0.1,0-0.2,0
				c-0.1,0-0.2,0-0.1-0.1c0-0.1,0-0.1,0.2-0.1c0.1,0,0.1-0.1,0.2-0.1c0,0,0-0.1-0.1-0.2c-0.1,0-0.1,0-0.1-0.1c0-0.1,0.1-0.2,0-0.2
				c-0.1,0-0.1,0-0.3,0.1c-0.2,0.1-0.2,0.1-0.3,0.1c0,0-0.1,0-0.2,0c-0.2,0-0.1,0-0.3,0c-0.2,0-0.4,0-0.5,0c-0.1,0-0.2-0.1-0.4,0
				c-0.1,0-0.3,0-0.3,0s0-0.1,0.1-0.2c0.1-0.1,0.1-0.1,0.2-0.2c0.1,0,0.2-0.1,0.2-0.1s0.1-0.1,0-0.1c-0.1,0-0.2,0-0.2,0
				s0.1-0.1,0.1-0.1c0.1,0,0.2-0.1,0.2-0.1c0-0.1,0.1-0.1,0.1-0.2c0-0.1,0-0.1,0.1-0.2c0.1-0.1,0.1-0.1,0.2-0.2
				c0.1-0.1,0.1-0.1,0.2-0.2c0,0,0.1-0.1,0-0.2c0-0.1,0-0.1,0.1-0.2c0.1-0.1,0.1-0.2,0.2-0.3c0.1-0.1,0.1-0.1,0.2-0.2
				c0-0.1,0.2-0.1,0.3-0.2c0-0.1,0.1-0.3,0.2-0.3c0.1-0.1,0.1-0.1,0.2-0.1c0.1,0,0,0,0.2,0c0.2,0,0.1-0.1,0.2,0c0-0.1,0-0.1,0-0.1
				c0,0,0,0,0,0.1c0,0.2,0.1,0.1-0.1,0.2c-0.1,0.1-0.2,0-0.2,0.1c0,0.1,0.2,0.1,0.1,0.2c-0.1,0.2-0.3,0.3-0.4,0.4
				c-0.1,0.1-0.2,0.1-0.2,0.2c0,0.1,0,0.1,0,0.2c0,0.1,0,0-0.1,0.2c-0.1,0.1-0.1,0.2-0.1,0.2s0.1-0.1,0.3-0.3
				c0.2-0.1,0.1-0.1,0.2-0.1c0.1,0,0.1,0,0.2,0.1c0.1,0,0.2,0,0.2,0c0,0,0.1,0.1-0.1,0.2c-0.1,0.1-0.1,0-0.1,0.1
				c-0.1,0.1-0.1,0.1-0.1,0.2c0,0.1,0.1,0.1,0.1,0.1c0.1,0,0.2,0,0.2,0c0.1,0.1,0.1,0.3,0.1,0.3s0.1,0,0.1,0c0,0,0.1-0.1,0.1-0.2
				c0.1,0,0.2-0.1,0.2-0.1s0.1-0.1,0.1-0.1c0,0.2,0.2,0.2,0.2,0.2c0,0,0.1,0,0.1,0c0.1,0,0.2,0.1,0.2,0.1c0,0.1-0.1,0.1-0.1,0.2
				c0,0.1-0.1,0-0.2,0.1c-0.1,0.2,0,0.1,0,0.2c0,0.1,0.1,0,0,0.1c-0.1,0.1,0,0.1,0,0.1s0.1,0.1,0.2,0.1c0.1,0,0.1-0.1,0.2-0.1
				c0.1,0,0.2-0.1,0.2,0c0,0.1,0,0-0.1,0.2c-0.2,0.1-0.2,0.1-0.3,0.2c-0.2,0.2-0.2,0.2-0.2,0.3c0,0,0.1,0.2,0.2,0.1
				c0.1-0.1,0.1-0.2,0.2-0.3c0.1-0.1,0.2-0.1,0.2-0.1c0,0.2,0,0.3,0,0.3c0,0.1-0.1,0.1-0.1,0.1c0.1,0,0.2-0.1,0.3-0.1
				C46,17.6,46.1,17.8,46.1,17.9z M39.4,68.4C39.4,68.4,39.4,68.5,39.4,68.4C39.4,68.5,39.4,68.4,39.4,68.4z M23,50.3
				c0,0.1-0.2,0.1-0.2,0.1c-0.1,0-0.2-0.1-0.2-0.2c0-0.1,0.1,0,0.1-0.1c0,0,0-0.1-0.1-0.2c-0.1,0-0.1,0-0.1-0.1c0,0,0.1-0.2,0.1-0.2
				c0,0,0.1,0,0.1,0c0,0,0.1,0.1,0.2,0.1c0,0,0,0.1,0,0.1c0,0.1,0.1,0.2,0.2,0.2C23.1,50.2,23,50.2,23,50.3z M23,49.8
				C23,49.8,23.1,49.8,23,49.8C23.1,49.8,23,49.8,23,49.8z M23.4,50.2c0,0.1,0,0-0.1,0c-0.1,0-0.1-0.1-0.1-0.2c0-0.1,0,0,0.1,0
				c0,0,0.1,0,0.2,0.1C23.5,50.1,23.4,50.2,23.4,50.2z M23.8,50.3c-0.1,0-0.1-0.1,0-0.1c0,0,0.1,0.1,0.1,0.1
				C24,50.3,23.9,50.3,23.8,50.3z"/>
			<path fill="#4E4F50" d="M69.3,31.9c0,0-0.1,0.1-0.1,0.1c-0.1,0-0.1,0.1-0.1,0.1C69,32,69,32,69,32.1c0,0,0,0.2,0,0.2
				c0.1,0,0,0.1,0.1,0.1c0.1,0,0.2-0.1,0.2-0.1c0,0,0-0.1,0-0.1c0.1,0,0.1,0,0.1-0.1C69.4,31.9,69.4,31.9,69.3,31.9z"/>
			<path fill="#4E4F50" d="M68.7,32.1c0,0-0.1,0.1,0,0.1c0,0.1,0.1,0.1,0.1,0.1C68.8,32.3,68.7,32.2,68.7,32.1
				C68.8,32.1,68.7,32.1,68.7,32.1z"/>
			<path fill="#4E4F50" d="M68.4,31.6c0,0-0.1,0-0.1,0.1c0,0.1,0,0.1,0,0.1c0,0,0.1,0.1,0.1,0.1c0,0,0.2-0.1,0.2-0.1
				C68.5,31.7,68.4,31.6,68.4,31.6z"/>
			<path fill="#4E4F50" d="M69.9,32.1c-0.1,0-0.2,0-0.2,0c0,0.1-0.1,0-0.1,0.1c0,0.1,0,0.1,0.1,0.1c0.1,0,0.1,0,0.1,0.1
				c0,0.1,0.1,0,0.2,0c0,0,0.1-0.1,0.1-0.1C69.9,32.3,69.9,32.2,69.9,32.1C69.9,32.2,70,32.1,69.9,32.1z"/>
			<path fill="#4E4F50" d="M70.8,31.7c-0.1,0.1-0.1,0.1-0.1,0.1c0,0,0,0.1-0.1,0.1c-0.1,0-0.1,0-0.1,0s0,0.1,0,0.1
				c0,0.1-0.1,0.1-0.1,0.1c0,0,0,0,0.1,0c0,0,0.1-0.1,0.1-0.1c0.1-0.1,0.1-0.1,0.2-0.1c0,0,0.1-0.1,0.1-0.2c0-0.1,0-0.1,0-0.1
				C70.9,31.8,70.9,31.7,70.8,31.7z"/>
			<path fill="#4E4F50" d="M71.2,31.3c-0.1,0.1-0.1,0.1-0.1,0.1c-0.1,0-0.1,0-0.1,0.1c0,0.1-0.1,0-0.1,0.1c0,0.1,0,0.1,0,0.1
				c0.1,0,0.1,0,0.1,0c0,0,0-0.1,0.1-0.1c0,0,0.1,0,0.1-0.1C71.2,31.4,71.2,31.4,71.2,31.3C71.2,31.3,71.2,31.3,71.2,31.3z"/>
			<path fill="#4E4F50" d="M68.2,32.3C68.1,32.4,68.1,32.4,68.2,32.3c0,0.1,0,0,0,0.1c0,0.1,0,0.1,0.1,0.1c0,0,0.1-0.1,0.1-0.1
				c0,0,0-0.1,0-0.1C68.3,32.3,68.2,32.3,68.2,32.3z"/>
			<path fill="#4E4F50" d="M68.8,28.7c0,0-0.1,0-0.1,0.1c0,0.1,0,0.1,0,0.1c0.1,0,0.1,0,0.1,0c0,0,0,0,0.1-0.1c0,0,0.1,0,0.1,0
				s0,0,0-0.1c0-0.1,0-0.1,0-0.1C69,28.7,68.8,28.7,68.8,28.7z"/>
		</g>
	</g>
</g>
</svg>
